<?xml version="1.0" encoding="utf-8"?>
<!-- Generator: Adobe Illustrator 15.1.0, SVG Export Plug-In . SVG Version: 6.00 Build 0)  -->
<!DOCTYPE svg PUBLIC "-//W3C//DTD SVG 1.1//EN" "http://www.w3.org/Graphics/SVG/1.1/DTD/svg11.dtd">
<svg version="1.1" id="Layer_1" xmlns="http://www.w3.org/2000/svg" xmlns:xlink="http://www.w3.org/1999/xlink" x="0px" y="0px"
	 width="300px" height="46.099px" viewBox="0 0 300 46.099" enable-background="new 0 0 300 46.099" xml:space="preserve">
<g id="_x36_soFy7_11_">
	<g>
		<path fill="#FFFFFF" d="M88.785,5.637c2.068-0.394,2.783,1.237,3.401,2.873c2.024,5.356,3.257,11.032,5.517,16.231
			c1.884,4.336,2.398,8.752,3.175,13.219c0.107,0.615,0.235,1.246,0.207,1.864c-0.037,0.796-0.102,1.727-1.053,1.978
			c-1.023,0.271-1.404-0.588-1.75-1.321c-1.296-2.749-2.673-5.471-3.812-8.286c-0.608-1.509-1.252-2.056-2.985-1.758
			c-3.531,0.608-7.02,1.678-10.673,1.384c-1.452-0.117-1.958,0.93-2.559,1.978c-0.977,1.705-1.446,3.692-2.813,5.171
			c-0.69,0.748-1.261,1.946-2.612,1.146c-1.144-0.678-0.748-1.661-0.419-2.623c1.799-5.259,3.71-10.483,4.881-15.938
			c0.636-2.965,1.27-5.937,2.04-8.868C80.718,7.397,83.075,5.648,88.785,5.637z M92.194,26.653c-0.78-1.578-1.302-2.803-1.972-3.942
			c-0.796-1.354-1.507-3.319-3.485-2.685c-2.005,0.642-2.524,2.896-3.435,4.606c-0.316,0.593,0.385,0.991,0.943,0.952
			C86.787,25.417,89.163,26.499,92.194,26.653z"/>
		<path fill="#FFFFFF" d="M187.183,10.924c-2.266,0.008-4.496,0.231-6.701,0.729c-2.96,0.668-3.861,1.882-3.314,4.457
			c0.515,2.424,1.772,3.12,4.7,2.465c2.017-0.452,4.047-0.913,5.996-1.583c2.134-0.735,3.17,0.253,3.476,2.099
			c0.301,1.838-0.177,3.521-2.465,3.694c-2.417,0.183-4.851,0.146-7.269,0.316c-2.87,0.201-3.713,1.28-3.062,4.082
			c0.484,2.093,1.219,4.132,1.864,6.188c0.718,2.29,2.376,3.212,4.691,3.287c2.888,0.094,5.693-0.509,8.532-0.848
			c2.554-0.306,3.536,0.551,3.644,3.026c0.114,2.599-1.252,4.366-3.335,4.528c-2.757,0.212-5.345-0.521-7.947-1.229
			c-3.981-1.087-7.959-2.185-11.947-3.245c-2.017-0.535-2.395-1.793-1.972-3.688c0.489-2.182,0.711-4.424,1.146-6.621
			c0.267-1.351,0.115-2.539-0.93-3.46c-1.433-1.258-0.83-2.344,0.16-3.457c2.693-3.029,2.656-5.328-0.17-8.061
			c-1.521-1.469-1.445-2.658,0.604-3.414c3.981-1.471,7.564-3.745,11.308-5.676c3.326-1.715,6.511-0.727,9.744-0.253
			c1.36,0.199,1.76,1.321,1.349,2.72c-0.679,2.312-3.021,4.13-5.413,4.069C188.974,11.027,188.077,10.967,187.183,10.924z"/>
		<path fill="#FFFFFF" d="M272.902,30.205c-1.351-0.001-2.701-0.011-4.052,0c-2.991,0.024-5.02,1.34-6.091,4.238
			c-0.649,1.76-1.533,3.447-2.848,4.864c-0.645,0.694-1.2,1.384-2.265,0.796c-1.042-0.576-0.893-1.438-0.58-2.342
			c1.139-3.313,2.44-6.582,3.382-9.951c1.418-5.088,2.672-10.23,3.829-15.387c1.034-4.617,6.295-6.829,9.576-6.826
			c1.412,0.002,2.166,0.674,2.649,1.851c2.212,5.384,3.992,10.915,5.579,16.51c0.385,1.358,0.549,2.856,2.058,3.596
			c0.403,0.199,0.779,0.575,0.691,1.07c-0.617,3.52,0.557,6.854,1.019,10.262c0.059,0.438,0.089,0.919-0.022,1.337
			c-0.179,0.662-0.229,1.544-1.153,1.619c-0.692,0.054-1.111-0.45-1.407-1.072c-1.158-2.42-2.665-4.73-3.43-7.266
			c-0.795-2.631-2.229-3.556-4.773-3.308C274.35,30.266,273.624,30.207,272.902,30.205z M275.417,26.583
			c0.559-0.145,1.74,0.177,1.217-1.027c-1.176-2.695-1.649-5.704-3.59-8.068c-0.861-1.046-1.875-1.464-2.508-0.087
			c-0.993,2.169-1.639,4.496-2.448,6.751c-0.316,0.882-0.078,1.488,0.893,1.443C271.172,25.498,273.254,26.019,275.417,26.583z"/>
		<path fill="#FFFFFF" d="M139.243,36.128c-0.449-7.358,1.312-14.046,1.768-20.849c0.192-2.867-0.273-5.765,0.44-8.598
			c0.238-0.945,0.354-2.298,1.531-2.203c1.116,0.091,1.176,1.457,1.257,2.413c0.352,4.121,0.677,8.243,0.929,12.371
			c0.1,1.646,0.644,2.344,2.456,2.201c2.419-0.192,4.853,0.063,7.186,0.872c1.968,0.683,2.827-0.067,2.857-2.109
			c0.045-3.147,0.241-6.295,0.262-9.441c0.01-1.547,0.238-3.043,0.542-4.541c0.16-0.777,0.234-1.838,1.276-1.715
			c0.77,0.091,0.804,1.047,0.852,1.782c0.189,2.87,0.398,5.739,0.603,8.607c0.156,2.152,0.439,4.305,0.43,6.456
			c-0.005,1.639,1.1,1.501,2.101,1.815c0.709,0.221,1.758,0.418,1.646,1.464c-0.093,0.874-1.003,0.965-1.706,0.979
			c-1.752,0.028-1.474,1.226-1.336,2.275c0.46,3.488,0.672,6.984,0.48,10.498c-0.045,0.806-0.067,1.64-0.292,2.403
			c-0.46,1.565-1.546,2.402-3.228,2.244c-1.568-0.149-2.372-1.025-2.538-2.621c-0.409-3.93-0.238-7.862,0.008-11.782
			c0.101-1.568-0.164-2.175-1.819-1.89c-2.479,0.424-4.904,1.144-7.454,1.155c-1.515,0.006-1.021,1.226-0.94,2.011
			c0.311,3.051,0.418,6.096,0.187,9.157c-0.167,2.195-0.879,3.836-3.449,3.96c-2.593,0.125-3.769-1.098-3.963-3.641
			C139.232,38.143,139.105,36.902,139.243,36.128z"/>
		<path fill="#FFFFFF" d="M48.958,12.126c0.753,1.247,0,2.279-0.233,3.354c-0.874,4.037-1.083,7.98,1.183,11.74
			c1.853,3.071,4.572,4.431,7.954,3.782c3.048-0.586,5.29-2.597,6.477-5.547c1.42-3.535,0.847-7.077-0.345-10.507
			c-1.381-3.972-5.178-5.281-8.971-3.292c-0.638,0.334-1.289,1.4-2.056,0.418c-0.709-0.908,0.337-1.453,0.824-1.996
			c3.122-3.477,11.268-3.012,13.415,1.023c2.279,4.284,4.045,8.807,3.379,13.921c-0.595,4.573-2.554,8.453-5.677,11.688
			c-5.263,5.452-15.375,3.228-18.439-3.901c-2.785-6.478-2.212-12.769,0.887-18.955c0.241-0.48,0.53-0.945,0.858-1.369
			C48.346,12.314,48.643,12.271,48.958,12.126z"/>
		<path fill="#FFFFFF" d="M38.563,43.34c-9.147-0.692-16.226-4.552-20.927-12.254c-2.306-3.778-2.049-7.921-0.871-12.027
			c1.425-4.959,4.415-8.993,7.767-12.786c0.717-0.811,1.738-1.684,2.746-1.576c3.572,0.383,6.916-1.025,10.409-1.077
			c0.864-0.013,2.02-0.283,2.337,0.798c0.312,1.062-0.521,1.693-1.382,2.346c-3.16,2.389-6.926,3.723-10.07,6.206
			c-4.807,3.799-7.966,11.389-5.797,17.083c1.961,5.151,6.102,8.328,11.712,9.21c1.856,0.291,3.743,0.39,5.602,0.67
			c0.9,0.136,2.257-0.101,2.286,1.303c0.025,1.265-0.931,1.853-2.173,1.933C39.577,43.21,38.954,43.297,38.563,43.34z"/>
		<path fill="#FFFFFF" d="M124.312,3.131c1.511,0.088,3.056-0.24,4.521,0.438c0.638,0.294,1.512,0.342,1.458,1.298
			c-0.044,0.778-0.561,1.302-1.312,1.548c-1.45,0.474-2.897,0.962-4.357,1.404c-9.626,2.919-14.937,14.838-10.969,22.69
			c2.09,4.135,5.178,7.367,9.805,8.526c2.052,0.514,4.185,1.009,6.378,0.902c1.105-0.054,2.612-0.314,2.586,1.472
			c-0.022,1.544-1.387,1.789-2.556,1.803c-7.667,0.085-14.338-2.454-19.264-8.396c-6.86-8.275-5.565-19.705,2.472-26.999
			C116.347,4.847,119.765,2.782,124.312,3.131z"/>
		<path fill="#FFFFFF" d="M222.949,42.07c-0.357-0.041-0.644-0.019-0.892-0.109c-5.679-2.103-11.788-2.097-17.589-3.595
			c-0.793-0.204-2.029-0.052-2.065-1.302c-0.033-1.25,1.21-1.157,1.991-1.414c2.777-0.915,2.634-3.488,2.457-5.384
			c-0.594-6.399,0.561-12.697,0.621-19.042c0.018-1.868-0.474-3.734,0.226-5.587c0.286-0.755,0.357-1.832,1.31-1.81
			c1.098,0.024,1.272,1.12,1.384,2.03c0.604,4.997,1.12,10.005,1.805,14.99c0.465,3.378,0.29,6.831,1.266,10.148
			c0.981,3.351,3.021,4.403,6.324,3.213c3.301-1.189,4.432-0.43,4.621,3.049c0.043,0.8,0.153,1.609,0.354,2.383
			C225.204,41.33,224.426,41.982,222.949,42.07z"/>
		<path fill="#FFFFFF" d="M249.663,41.936c-6.191,0.357-11.828-2.022-17.669-3.38c-1.284-0.3-1.511-1.139-0.729-1.934
			c3.867-3.936,3.17-8.972,3.324-13.74c0.156-4.85-0.099-9.712-0.08-14.57c0.008-1.605-0.5-4.085,1.688-4.162
			c1.854-0.065,1.353,2.379,1.505,3.776c0.771,7.049,1.408,14.113,2.15,21.165c0.501,4.761,1.354,5.523,5.912,5.602
			c4.436,0.076,4.925,0.588,5.968,4.794C252.255,41.591,251.477,42.127,249.663,41.936z"/>
	</g>
</g>
</svg>
