<?xml version="1.0" encoding="utf-8"?>
<!-- Generator: Adobe Illustrator 15.1.0, SVG Export Plug-In . SVG Version: 6.00 Build 0)  -->
<!DOCTYPE svg PUBLIC "-//W3C//DTD SVG 1.1//EN" "http://www.w3.org/Graphics/SVG/1.1/DTD/svg11.dtd">
<svg version="1.1" id="Layer_1" xmlns="http://www.w3.org/2000/svg" xmlns:xlink="http://www.w3.org/1999/xlink" x="0px" y="0px"
	 width="164.5px" height="25.75px" viewBox="0 0 164.5 25.75" enable-background="new 0 0 164.5 25.75" xml:space="preserve">
<path fill="#FFFFFF" d="M43.309,13.165c-0.001,2.084-0.043,4.17,0.01,6.253c0.073,2.926-1.965,5.111-4.99,5.019
	c-4.074-0.125-8.154-0.028-12.232-0.032c-2.823-0.003-4.886-1.974-4.897-4.811c-0.017-4.407,0.017-8.816,0.094-13.222
	c0.048-2.695,2.115-4.54,5.157-4.587c3.716-0.057,7.432-0.047,11.146-0.003c2.899,0.035,4.788,1.278,5.515,3.532
	c0.127,0.392,0.185,0.822,0.193,1.236c0.023,1.117,0.005,2.235,0.005,3.353C43.308,10.99,43.309,12.077,43.309,13.165
	 M37.675,21.352c-0.543-1.679-1.004-3.095-1.459-4.512c-0.65-2.024-0.644-2.017,1.042-3.248c1.169-0.853,2.32-1.73,3.479-2.596
	c-1.925-0.191-3.759-0.226-5.59-0.173c-0.697,0.02-0.973-0.212-1.165-0.871c-0.536-1.84-1.159-3.655-1.829-5.732
	c-0.675,2.066-1.32,3.862-1.833,5.696c-0.209,0.75-0.55,0.907-1.254,0.889c-1.822-0.047-3.646-0.016-5.468-0.016
	c1.424,1.264,2.895,2.343,4.391,3.385c0.528,0.367,0.732,0.686,0.489,1.387c-0.633,1.831-1.14,3.706-1.768,5.799
	c1.966-1.436,3.731-2.726,5.518-4.03C33.993,18.633,35.727,19.913,37.675,21.352"/>
<path fill="#FFFFFF" d="M106.329,24.241V1.767c0.678,0,1.304,0,1.929,0c3.144,0.001,6.286-0.028,9.43,0.017
	c1.683,0.023,3.361,0.331,4.549,1.627c0.663,0.724,1.35,1.691,1.448,2.611c0.206,1.903,0.15,3.859-0.027,5.772
	c-0.188,2.01-1.445,3.317-3.347,3.991c-0.108,0.039-0.207,0.109-0.354,0.188c1.465,2.756,2.916,5.485,4.406,8.288
	c-1.184,0-2.294-0.115-3.371,0.027c-1.608,0.212-2.495-0.366-3.127-1.873c-0.813-1.938-1.921-3.751-2.845-5.646
	c-0.313-0.646-0.66-0.936-1.423-0.908c-1.764,0.066-1.765,0.02-1.765,1.837c-0.001,2.143,0,4.285,0,6.543H106.329z M111.908,10.437
	h6.232V7.243h-6.232V10.437z"/>
<path fill="#FFFFFF" d="M142.982,1.917v5.26h-11.021v3.444c0.529,0,1.029-0.011,1.529,0.002c2.196,0.058,4.42-0.067,6.584,0.235
	c2.4,0.334,3.704,2.201,3.679,4.625c-0.013,1.269-0.044,2.54,0.005,3.807c0.119,3.132-1.74,4.929-4.682,5.032
	c-4.043,0.142-8.096,0.028-12.146,0.02c-0.054,0-0.106-0.047-0.22-0.1v-5.079h11.183v-3.237c-0.312-0.014-0.63-0.04-0.947-0.041
	c-2.115-0.004-4.231-0.001-6.347-0.002c-2.681-0.001-4.326-1.363-4.521-4.01c-0.136-1.859-0.1-3.751,0.077-5.607
	c0.233-2.47,1.933-4.051,4.355-4.326c0.299-0.034,0.604-0.021,0.906-0.021C135.251,1.917,139.084,1.917,142.982,1.917"/>
<path fill="#FFFFFF" d="M103.468,1.684v5.488h-10.81v3.344h10.799v5.36H92.609c0,0.972-0.044,1.843,0.033,2.704
	c0.017,0.196,0.451,0.507,0.695,0.508c2.082,0.012,4.164-0.041,6.246-0.062c1.263-0.013,2.525-0.003,3.852-0.003v5.335h-0.949
	c-3.201,0-6.404,0.012-9.604-0.01c-0.72-0.005-1.455-0.055-2.152-0.217c-2.205-0.513-3.569-2.021-3.61-4.374
	c-0.079-4.466-0.062-8.938,0.075-13.403c0.071-2.349,1.652-4.175,3.974-4.339C95.22,1.729,99.296,1.777,103.468,1.684"/>
<path fill="#FFFFFF" d="M151.419,15.994v3.114h10.883v5.298h-3.282c-2.658,0-5.315,0.002-7.974-0.001
	c-3.283-0.004-5.17-1.885-5.17-5.161c-0.001-4.107-0.06-8.217,0.035-12.323c0.066-2.928,1.911-4.856,4.814-4.95
	c3.83-0.124,7.667-0.03,11.57-0.03v5.297h-10.863v3.356h10.845v5.4H151.419z"/>
<path fill="#FFFFFF" d="M51.976,7.058v17.227h-5.602V1.739h2.555c2.811,0,5.621-0.029,8.431,0.018
	c0.892,0.014,1.804,0.143,2.667,0.372c2.206,0.587,3.663,2.309,3.688,4.593c0.064,5.77,0.021,11.542,0.017,17.313
	c0,0.057-0.034,0.113-0.076,0.246h-5.571V7.058H51.976z"/>
<path fill="#FFFFFF" d="M75.512,17.922c1.497-5.372,2.994-10.745,4.498-16.143h6.247c-0.862,2.727-1.707,5.416-2.562,8.102
	c-1.448,4.552-2.914,9.099-4.341,13.658c-0.205,0.655-0.501,0.883-1.201,0.863c-1.903-0.056-3.808-0.045-5.711-0.005
	c-0.643,0.014-0.944-0.165-1.146-0.81c-1.814-5.794-3.67-11.576-5.511-17.362c-0.464-1.457-0.922-2.917-1.417-4.483
	c2.029,0,3.954-0.016,5.877,0.025c0.187,0.004,0.464,0.33,0.53,0.556c1.182,4.035,2.337,8.077,3.499,12.118
	c0.336,1.168,0.674,2.334,1.01,3.502C75.361,17.936,75.437,17.929,75.512,17.922"/>
<path fill="#FFFFFF" d="M18.753,1.859v5.147h-0.977c-3.203,0-6.405,0.019-9.605-0.015C7.44,6.984,7.169,7.168,7.178,7.946
	c0.038,3.353,0.037,6.706,0,10.059c-0.008,0.747,0.208,0.986,0.963,0.978c3.292-0.036,6.585-0.016,9.878-0.015
	c0.207,0,0.414,0.02,0.736,0.036c0,1.646,0.015,3.267-0.022,4.886c-0.004,0.158-0.328,0.444-0.502,0.443
	c-4.255-0.017-8.515,0.049-12.762-0.154c-2.253-0.108-3.795-1.878-3.891-4.167c-0.123-2.955-0.061-5.917-0.068-8.877
	c-0.005-1.54-0.021-3.081,0.022-4.62C1.608,3.818,3.343,1.864,6.019,1.79c4.165-0.117,8.336-0.031,12.504-0.027
	C18.575,1.762,18.629,1.806,18.753,1.859"/>
</svg>
