<?xml version="1.0" encoding="utf-8"?>
<!-- Generator: Adobe Illustrator 15.1.0, SVG Export Plug-In . SVG Version: 6.00 Build 0)  -->
<!DOCTYPE svg PUBLIC "-//W3C//DTD SVG 1.1//EN" "http://www.w3.org/Graphics/SVG/1.1/DTD/svg11.dtd">
<svg version="1.1" id="Layer_1" xmlns="http://www.w3.org/2000/svg" xmlns:xlink="http://www.w3.org/1999/xlink" x="0px" y="0px"
	 width="196.25px" height="24px" viewBox="0 0 196.25 24" enable-background="new 0 0 196.25 24" xml:space="preserve">
<path fill="#FFFFFF" d="M194.706,14.177c-0.095,0.454-0.178,0.912-0.286,1.363c-0.863,3.586-3.452,5.874-7.235,6.374
	c-0.657,0.087-1.323,0.142-1.985,0.144c-3.576,0.014-7.151,0.007-10.728,0.006c-0.153,0-0.307-0.018-0.493-0.029v-1.408
	c0.63,0,1.249,0.005,1.868-0.001c0.943-0.01,1.392-0.408,1.395-1.346c0.016-4.299,0.015-8.598-0.001-12.897
	c-0.004-0.952-0.438-1.337-1.387-1.345c-0.584-0.005-1.167-0.001-1.798-0.001V3.602h0.621c3.399,0,6.801-0.04,10.2,0.021
	c1.239,0.022,2.507,0.157,3.705,0.46c3.505,0.886,5.525,3.254,6,6.829c0.026,0.191,0.082,0.378,0.124,0.566V14.177z M179.969,20.719
	c2.231-0.099,4.444-0.056,6.618-0.331c2.673-0.339,4.268-2.027,4.849-4.653c0.371-1.679,0.4-3.372,0.132-5.067
	c-0.53-3.354-2.46-5.216-5.851-5.511c-1.611-0.14-3.239-0.087-4.86-0.119c-0.286-0.006-0.573-0.001-0.888-0.001V20.719z"/>
<path fill="#FFFFFF" d="M103.313,3.149c0.435,0.097,0.871,0.186,1.304,0.293c1.215,0.3,2.279,0.892,3.24,1.782
	c0.15-0.302,0.271-0.542,0.39-0.785c0.486-1.008,0.486-1.008,1.678-0.812v6.979h-1.213c-0.433-1.098-0.714-2.193-1.265-3.131
	c-1.477-2.514-5.014-3.559-7.682-2.378c-1.277,0.565-1.821,1.601-1.831,2.944c-0.009,1.266,0.716,2.095,1.834,2.448
	c1.464,0.463,2.991,0.725,4.48,1.116c1.316,0.346,2.661,0.645,3.918,1.152c1.723,0.696,2.644,2.078,2.743,3.954
	c0.105,1.996-0.539,3.649-2.267,4.78c-0.983,0.644-2.086,0.957-3.236,1.129c-0.191,0.028-0.38,0.08-0.568,0.122h-2.346
	c-0.562-0.155-1.164-0.225-1.675-0.48c-1.053-0.526-2.057-1.15-3.12-1.758c-0.119,0.29-0.343,0.701-0.453,1.141
	c-0.149,0.594-0.488,0.782-1.059,0.691c-0.187-0.029-0.384-0.004-0.618-0.004v-7.628h1.326c0.181,0.646,0.318,1.314,0.549,1.948
	c1.291,3.534,4.762,5.32,8.34,4.316c1.615-0.454,2.576-1.476,2.703-2.875c0.123-1.363-0.358-2.417-1.648-2.94
	c-1.218-0.495-2.535-0.753-3.813-1.094c-1.524-0.407-3.11-0.649-4.573-1.214c-3.758-1.451-3.524-6.03-1.541-7.936
	c0.968-0.931,2.14-1.408,3.438-1.635c0.169-0.03,0.335-0.083,0.502-0.125H103.313z"/>
<path fill="#FFFFFF" d="M1.597,3.735h9.464v1.414c-0.672,0-1.33-0.007-1.988,0.002c-0.879,0.012-1.35,0.41-1.352,1.267
	c-0.016,4.71-0.004,9.42,0,14.13c0,0.035,0.024,0.071,0.059,0.162c0.165,0.009,0.353,0.028,0.54,0.029
	c1.329,0.002,2.659,0.011,3.987-0.004c0.468-0.005,0.938-0.04,1.4-0.111c1.192-0.183,2.06-0.832,2.321-2.02
	c0.242-1.098,0.313-2.235,0.45-3.356c0.023-0.191,0.003-0.387,0.003-0.627h1.507v7.508c-0.127,0.015-0.257,0.044-0.386,0.044
	c-5.258,0.002-10.515,0.002-15.773,0.001c-0.076,0-0.154-0.013-0.232-0.02v-1.407c0.625-0.003,1.25-0.005,1.875-0.007
	c1.151-0.003,1.538-0.386,1.541-1.555c0.005-1.738,0.001-3.477,0.001-5.216c0-2.442,0.006-4.884-0.002-7.326
	C5.008,5.545,4.608,5.155,3.529,5.149C2.886,5.146,2.24,5.146,1.597,5.144V3.735z"/>
<path fill="#FFFFFF" d="M64.505,18.64v-0.734c0-3.695,0.001-7.39,0-11.085C64.504,5.486,64.169,5.15,62.85,5.15
	c-0.564-0.001-1.13,0-1.735,0V3.757h8.429V5.15c-0.615,0-1.197-0.003-1.779,0c-1.056,0.006-1.449,0.384-1.466,1.45
	c-0.015,1.095-0.003,2.19-0.003,3.285c0,3.871,0,7.742,0,11.613c0,0.211,0,0.421,0,0.693c-0.754,0-1.454,0.025-2.149-0.017
	c-0.169-0.011-0.351-0.22-0.484-0.374c-4.426-5.089-8.846-10.184-13.267-15.277c-0.114-0.131-0.235-0.256-0.415-0.451
	c-0.022,0.216-0.05,0.357-0.05,0.499c-0.002,4.203-0.003,8.407-0.001,12.61c0.001,1.165,0.393,1.556,1.539,1.559
	c0.604,0.002,1.206,0,1.853,0v1.395h-8.522V20.74c0.636,0,1.273,0.004,1.911,0c1.001-0.007,1.438-0.418,1.439-1.426
	c0.009-4.242,0.009-8.485,0-12.727c-0.003-1.041-0.431-1.433-1.485-1.437c-0.604-0.003-1.209,0-1.861,0V3.714h0.547
	c1.877,0,3.754,0.012,5.63-0.01c0.396-0.004,0.64,0.136,0.89,0.424c4.033,4.654,8.077,9.298,12.118,13.944
	C64.114,18.219,64.249,18.36,64.505,18.64"/>
<path fill="#FFFFFF" d="M72.022,22.145V20.74c0.667,0,1.307,0.008,1.945-0.001c0.877-0.014,1.322-0.419,1.325-1.29
	c0.012-4.341,0.013-8.681-0.001-13.022c-0.003-0.872-0.447-1.262-1.336-1.275c-0.603-0.009-1.205-0.002-1.85-0.002V3.763
	c0.102-0.017,0.193-0.045,0.285-0.045C76.146,3.721,79.9,3.71,83.654,3.739c1.436,0.012,2.839,0.286,4.177,0.827
	c2.24,0.907,3.747,2.505,4.441,4.827c0.625,2.085,0.685,4.206,0.188,6.319c-0.83,3.523-3.425,5.791-7.163,6.313
	c-0.599,0.083-1.207,0.142-1.81,0.144c-3.677,0.013-7.353,0.007-11.028,0.006C72.326,22.175,72.191,22.157,72.022,22.145
	 M78.038,20.626c2.088,0,4.128,0.143,6.141-0.034c2.97-0.261,4.741-1.977,5.353-4.902c0.399-1.917,0.387-3.848-0.067-5.756
	c-0.538-2.261-1.916-3.753-4.18-4.38c-2.377-0.658-4.804-0.316-7.246-0.411V20.626z"/>
<path fill="#FFFFFF" d="M42.318,20.741v1.395h-8.872v-1.343c0.141-0.017,0.287-0.047,0.435-0.05
	c0.508-0.009,1.018,0.016,1.523-0.015c1.045-0.064,1.37-0.515,1.04-1.508c-0.325-0.982-0.701-1.948-1.091-2.906
	c-0.058-0.144-0.311-0.297-0.473-0.298c-2.503-0.018-5.007-0.02-7.509,0.002c-0.175,0.002-0.435,0.18-0.507,0.342
	c-0.438,0.98-0.851,1.972-1.237,2.974c-0.38,0.98-0.125,1.356,0.92,1.396c0.603,0.023,1.207,0.004,1.85,0.004v1.402h-7.775v-1.395
	c0.325,0,0.669-0.008,1.013,0.001c0.798,0.02,1.441-0.291,1.78-1.01c0.698-1.482,1.362-2.981,1.999-4.49
	c1.581-3.742,3.145-7.491,4.7-11.243c0.145-0.347,0.332-0.467,0.698-0.448c0.585,0.03,1.175,0.039,1.758-0.002
	c0.433-0.031,0.604,0.141,0.753,0.528c1.9,4.96,3.816,9.914,5.733,14.868c0.587,1.518,0.996,1.792,2.623,1.796
	C41.871,20.741,42.063,20.741,42.318,20.741 M31.475,4.896c-1.3,3.254-2.534,6.342-3.791,9.486H34.7
	C33.635,11.249,32.582,8.155,31.475,4.896"/>
<path fill="#FFFFFF" d="M146.787,3.714h1.711c1.466,0,2.934,0.016,4.399-0.01c0.431-0.008,0.714,0.12,0.999,0.449
	c4.044,4.671,8.102,9.328,12.158,13.989c0.121,0.139,0.251,0.273,0.475,0.516v-0.645c0-3.676,0-7.352-0.002-11.028
	c0-0.253-0.005-0.51-0.044-0.759c-0.114-0.73-0.482-1.055-1.23-1.073c-0.702-0.016-1.405-0.003-2.152-0.003V3.759h8.439v1.39
	c-0.545,0-1.066,0-1.589,0c-1.309,0.001-1.657,0.348-1.658,1.677c-0.003,3.441-0.001,6.883-0.001,10.324
	c0,1.506,0,3.011-0.001,4.517c0,0.152-0.016,0.304-0.027,0.521c-0.726,0-1.425,0.025-2.119-0.018c-0.17-0.01-0.352-0.22-0.486-0.375
	c-4.438-5.105-8.872-10.214-13.307-15.322c-0.108-0.125-0.226-0.242-0.437-0.468v0.65c0,4.086-0.001,8.173,0.001,12.26
	c0,0.233,0.007,0.47,0.039,0.701c0.106,0.76,0.483,1.097,1.25,1.122c0.353,0.011,0.704,0.002,1.057,0.002c0.349,0,0.697,0,1.086,0
	v1.397h-8.565V20.74c0.617,0,1.232,0.002,1.848,0c1.113-0.003,1.519-0.397,1.521-1.521c0.005-4.185,0.006-8.369,0-12.553
	c-0.002-1.132-0.398-1.512-1.523-1.517c-0.565-0.002-1.133-0.006-1.699-0.012c-0.035-0.001-0.07-0.027-0.141-0.056V3.714z"/>
<path fill="#FFFFFF" d="M131.441,5.22v6.584c1.186,0,2.336,0.039,3.484-0.014c0.745-0.034,1.077-0.404,1.211-1.201
	c0.097-0.574,0.131-1.159,0.197-1.778h1.368v7.859h-1.373c-0.059-0.658-0.092-1.282-0.177-1.899
	c-0.145-1.062-0.502-1.408-1.56-1.446c-1.031-0.037-2.065-0.008-3.145-0.008v7.424c0.393,0,0.758,0.003,1.125-0.001
	c1.954-0.025,3.913,0.031,5.86-0.102c1.807-0.124,2.696-0.997,3.04-2.793c0.194-1.012,0.248-2.051,0.369-3.118h1.333v7.412h-17.748
	v-1.398c0.613,0,1.23,0.003,1.848-0.001c0.986-0.008,1.414-0.396,1.417-1.378c0.011-4.282,0.012-8.564-0.001-12.846
	c-0.003-0.981-0.429-1.358-1.426-1.366c-0.528-0.004-1.057-0.004-1.584-0.009c-0.037,0-0.073-0.018-0.153-0.04V3.757h17.647v6.879
	h-1.357c-0.081-0.784-0.13-1.561-0.247-2.327c-0.296-1.952-1.218-2.95-3.184-3.059C136.092,5.122,133.784,5.22,131.441,5.22"/>
<path fill="#FFFFFF" d="M117.758,5.815c0.004,1.442-1.406,3.43-2.761,3.832c-0.189,0.056-0.44-0.091-0.663-0.144
	c0.082-0.214,0.113-0.477,0.26-0.632c0.396-0.422,0.884-0.763,1.256-1.203c0.332-0.391,0.222-0.563-0.285-0.616
	c-0.846-0.087-1.338-0.469-1.535-1.193c-0.207-0.761,0.055-1.543,0.661-1.98c0.6-0.432,1.472-0.447,2.09-0.017
	C117.459,4.333,117.756,5.002,117.758,5.815"/>
</svg>
