<?xml version="1.0" encoding="utf-8"?>
<!-- Generator: Adobe Illustrator 15.1.0, SVG Export Plug-In . SVG Version: 6.00 Build 0)  -->
<!DOCTYPE svg PUBLIC "-//W3C//DTD SVG 1.1//EN" "http://www.w3.org/Graphics/SVG/1.1/DTD/svg11.dtd">
<svg version="1.1" id="Layer_1" xmlns="http://www.w3.org/2000/svg" xmlns:xlink="http://www.w3.org/1999/xlink" x="0px" y="0px"
	 width="256.5px" height="29.25px" viewBox="0 0 256.5 29.25" enable-background="new 0 0 256.5 29.25" xml:space="preserve">
<polygon fill="#FFFFFF" points="5.789,21.812 3.84,21.812 3.84,12.166 2.647,12.166 2.647,10.363 3.84,10.363 3.84,6.246 
	5.789,6.246 5.789,10.363 7.835,10.363 7.835,12.166 5.789,12.166 "/>
<path fill="#FFFFFF" d="M11.537,1.715v9.988l0.049,0.048c0.805-1.096,1.852-1.705,3.265-1.705c3.167,0,3.897,2.29,3.897,4.97v6.796
	h-1.949v-6.455c0-1.851-0.146-3.508-2.412-3.508c-2.679,0-2.85,2.485-2.85,4.531v5.432H9.588V1.715H11.537z"/>
<path fill="#FFFFFF" d="M23.424,16.502c0.025,2.119,1.535,3.824,3.752,3.824c1.656,0,2.728-0.999,3.483-2.363l1.656,0.95
	c-1.096,2.046-2.947,3.216-5.286,3.216c-3.41,0-5.603-2.606-5.603-5.896c0-3.386,1.973-6.188,5.554-6.188
	c3.679,0,5.627,3.045,5.433,6.456H23.424z M30.367,14.845c-0.269-1.656-1.657-2.995-3.362-2.995c-1.681,0-3.24,1.339-3.483,2.995
	H30.367z"/>
<path fill="#FFFFFF" d="M44.446,11.994h0.048c0.95-1.266,2.363-1.947,3.946-1.947c3.361,0,5.481,2.897,5.481,6.064
	c0,3.266-2.071,6.018-5.506,6.018c-1.559,0-2.996-0.683-3.922-1.924h-0.048v8.038h-1.949v-17.88h1.949V11.994z M44.348,15.966
	c0,2.241,1.315,4.36,3.752,4.36c2.51,0,3.824-2.021,3.824-4.337c0-2.29-1.437-4.141-3.849-4.141
	C45.81,11.849,44.348,13.821,44.348,15.966"/>
<path fill="#FFFFFF" d="M67.099,21.812H65.15v-1.584h-0.049c-0.999,1.268-2.339,1.9-3.946,1.9c-3.361,0-5.48-2.851-5.48-6.018
	c0-3.264,2.07-6.064,5.505-6.064c1.56,0,2.973,0.729,3.922,1.947h0.049v-1.631h1.948V21.812z M57.672,15.966
	c0,2.241,1.315,4.36,3.751,4.36c2.509,0,3.825-2.021,3.825-4.337c0-2.29-1.438-4.141-3.85-4.141
	C59.134,11.849,57.672,13.821,57.672,15.966"/>
<path fill="#FFFFFF" d="M70.606,1.715h1.949v10.279h0.048c0.926-1.218,2.362-1.947,3.922-1.947c3.411,0,5.506,2.801,5.506,6.041
	c0,3.19-2.12,6.041-5.482,6.041c-1.583,0-3.02-0.658-3.945-1.9h-0.048v1.584h-1.949V1.715z M72.457,15.966
	c0,2.241,1.315,4.36,3.752,4.36c2.51,0,3.824-2.021,3.824-4.337c0-2.29-1.437-4.141-3.849-4.141
	C73.919,11.849,72.457,13.821,72.457,15.966"/>
<rect x="84.368" y="1.593" fill="#FFFFFF" width="4.434" height="20.219"/>
<path fill="#FFFFFF" d="M105.854,15.576c0,4.238-3.509,6.649-7.527,6.649c-3.995,0-7.527-2.387-7.527-6.649s3.509-6.675,7.527-6.675
	S105.854,11.313,105.854,15.576 M95.477,15.576c0,1.583,1.047,2.801,2.85,2.801s2.85-1.218,2.85-2.801
	c0-1.535-1.047-2.826-2.85-2.826S95.477,14.041,95.477,15.576"/>
<polygon fill="#FFFFFF" points="113.988,15.722 116.96,9.316 121.93,9.316 115.401,21.812 112.575,21.812 106.022,9.316 
	110.992,9.316 "/>
<path fill="#FFFFFF" d="M135.862,16.307h-9.33c0,1.803,0.95,2.777,2.777,2.777c0.95,0,1.632-0.316,2.119-1.145h4.263
	c-0.706,2.946-3.507,4.287-6.357,4.287c-4.142,0-7.235-2.339-7.235-6.65c0-4.166,2.85-6.675,6.919-6.675
	c4.336,0,6.845,2.68,6.845,6.942V16.307z M131.746,13.749c-0.22-1.194-1.315-1.973-2.51-1.973c-1.291,0-2.362,0.682-2.631,1.973
	H131.746z"/>
<path fill="#FFFFFF" d="M147.895,21.812h-1.949v-9.646h-1.071v-1.803h1.071V5.809c0-0.95,0-2.145,0.513-2.973
	c0.633-1.023,1.777-1.438,2.946-1.438c0.463,0,0.926,0.098,1.39,0.244v1.973c-0.438-0.146-0.829-0.269-1.316-0.269
	c-1.583,0-1.583,1.12-1.583,3.143v3.874h2.899v1.803h-2.899V21.812z"/>
<path fill="#FFFFFF" d="M151.426,16.111c0-3.361,2.656-6.064,6.017-6.064c3.362,0,6.018,2.703,6.018,6.064
	c0,3.362-2.679,6.019-6.018,6.019C154.105,22.13,151.426,19.474,151.426,16.111 M153.375,16.088c0,2.339,1.657,4.238,4.067,4.238
	c2.412,0,4.068-1.899,4.068-4.238c0-2.314-1.656-4.238-4.068-4.238C155.032,11.85,153.375,13.773,153.375,16.088"/>
<path fill="#FFFFFF" d="M167.94,16.745c0,1.924,0.22,3.581,2.582,3.581c2.363,0,2.583-1.657,2.583-3.581v-6.382h1.948v6.602
	c0,3.045-1.145,5.165-4.531,5.165c-3.386,0-4.53-2.12-4.53-5.165v-6.602h1.948V16.745z"/>
<path fill="#FFFFFF" d="M180.559,11.751h0.049c0.805-1.096,1.852-1.704,3.265-1.704c3.167,0,3.897,2.289,3.897,4.969v6.797h-1.949
	v-6.456c0-1.851-0.146-3.507-2.411-3.507c-2.681,0-2.851,2.483-2.851,4.531v5.432h-1.949V10.363h1.949V11.751z"/>
<path fill="#FFFFFF" d="M199.973,20.229h-0.048c-0.95,1.242-2.388,1.9-3.947,1.9c-3.361,0-5.481-2.851-5.481-6.018
	c0-3.264,2.071-6.064,5.507-6.064c1.534,0,2.995,0.729,3.922,1.947h0.048V1.715h1.95v20.098h-1.95V20.229z M192.494,15.966
	c0,2.241,1.315,4.36,3.751,4.36c2.51,0,3.825-2.021,3.825-4.337c0-2.29-1.437-4.141-3.849-4.141
	C193.956,11.849,192.494,13.821,192.494,15.966"/>
<path fill="#FFFFFF" d="M215.977,21.812h-1.949v-1.584h-0.048c-0.999,1.268-2.339,1.9-3.947,1.9c-3.361,0-5.481-2.851-5.481-6.018
	c0-3.264,2.071-6.064,5.507-6.064c1.559,0,2.972,0.729,3.922,1.947h0.048v-1.631h1.949V21.812z M206.549,15.966
	c0,2.241,1.315,4.36,3.751,4.36c2.51,0,3.825-2.021,3.825-4.337c0-2.29-1.437-4.141-3.849-4.141
	C208.01,11.849,206.549,13.821,206.549,15.966"/>
<polygon fill="#FFFFFF" points="221.627,21.812 219.678,21.812 219.678,12.166 218.484,12.166 218.484,10.363 219.678,10.363 
	219.678,6.246 221.627,6.246 221.627,10.363 223.673,10.363 223.673,12.166 221.627,12.166 "/>
<path fill="#FFFFFF" d="M228.155,6.051c0,0.78-0.634,1.39-1.39,1.39c-0.755,0-1.388-0.609-1.388-1.39
	c0-0.755,0.633-1.388,1.388-1.388C227.521,4.663,228.155,5.296,228.155,6.051 M227.741,21.812h-1.949V10.363h1.949V21.812z"/>
<path fill="#FFFFFF" d="M230.785,16.111c0-3.361,2.654-6.064,6.017-6.064s6.017,2.703,6.017,6.064c0,3.362-2.679,6.019-6.017,6.019
	C233.465,22.13,230.785,19.474,230.785,16.111 M232.733,16.088c0,2.339,1.657,4.238,4.068,4.238c2.412,0,4.068-1.899,4.068-4.238
	c0-2.314-1.656-4.238-4.068-4.238C234.391,11.85,232.733,13.773,232.733,16.088"/>
<path fill="#FFFFFF" d="M247.446,11.751h0.049c0.805-1.096,1.852-1.704,3.265-1.704c3.167,0,3.897,2.289,3.897,4.969v6.797h-1.949
	v-6.456c0-1.851-0.146-3.507-2.411-3.507c-2.681,0-2.851,2.483-2.851,4.531v5.432h-1.949V10.363h1.949V11.751z"/>
</svg>
