<?xml version="1.0" encoding="utf-8"?>
<!-- Generator: Adobe Illustrator 15.1.0, SVG Export Plug-In . SVG Version: 6.00 Build 0)  -->
<!DOCTYPE svg PUBLIC "-//W3C//DTD SVG 1.1//EN" "http://www.w3.org/Graphics/SVG/1.1/DTD/svg11.dtd">
<svg version="1.1" id="Layer_1" xmlns="http://www.w3.org/2000/svg" xmlns:xlink="http://www.w3.org/1999/xlink" x="0px" y="0px"
	 width="109.75px" height="78.75px" viewBox="0 0 109.75 78.75" enable-background="new 0 0 109.75 78.75" xml:space="preserve">
<path fill="#FFFFFF" d="M33.847,46.338c-2.059,1.852-4.012,3.609-6.152,5.533c-1.023-0.991-2.415-2.202-3.635-3.568
	c-0.936-1.047-1.728-1.164-3.085-0.672c-5.318,1.929-10.27,1.042-14.344-2.907c-4.037-3.915-5.253-8.764-3.643-14.222
	c0.196-0.666,0.529-1.292,0.91-2.202c4.567,4.445,8.943,8.707,13.257,12.906c1.887-1.813,3.689-3.546,5.462-5.251
	c-4.334-4.387-8.612-8.718-13.141-13.302c0.837-0.406,1.364-0.743,1.939-0.929c5.364-1.74,10.269-0.928,14.329,3.074
	c4.146,4.086,5.225,9.082,3.366,14.579c-0.447,1.322-0.259,2.05,0.717,2.92C31.167,43.492,32.372,44.84,33.847,46.338"/>
<path fill="#FFFFFF" d="M40.719,21.938v18.424h8.446V21.904c5.846,1.233,10.28,7.919,9.64,14.245
	c-0.71,7.013-6.555,12.476-13.472,12.591c-7.303,0.121-13.17-5.074-14.085-12.472C30.474,30.011,34.779,23.37,40.719,21.938"/>
<path fill="#FFFFFF" d="M82.268,30.375c0,2.514-0.026,4.791,0.013,7.068c0.015,0.933-0.355,1.334-1.274,1.265
	c-0.238-0.017-0.492-0.037-0.718,0.022c-0.766,0.201-1.522,0.438-2.282,0.662c0.738,0.175,1.474,0.48,2.217,0.502
	c2.219,0.061,4.443,0.051,6.664-0.013c1.102-0.03,1.656,0.229,1.607,1.486c-0.085,2.209-0.023,4.423-0.023,6.968
	c-1.566,0-2.989-0.009-4.411,0.002c-4.263,0.03-8.526,0.059-12.788,0.111c-0.92,0.011-1.629-0.005-1.634-1.271
	c-0.037-8.584-0.125-17.169-0.189-25.753c-0.001-0.107,0.087-0.217,0.285-0.679c2.283,0,4.726-0.044,7.163,0.059
	c0.286,0.013,0.748,0.822,0.768,1.278c0.095,2.158,0.141,4.325,0.053,6.482c-0.058,1.405,0.374,2.008,1.827,1.827
	C80.307,30.297,81.089,30.375,82.268,30.375"/>
<path fill="#FFFFFF" d="M78.043,67.685v9.497h-8.015V49.891h18.467c0,2.347,0.045,4.725-0.056,7.097
	c-0.012,0.297-0.78,0.788-1.213,0.805c-2.579,0.102-5.163,0.047-7.741,0.151c-0.494,0.021-0.968,0.521-1.451,0.798
	c0.472,0.223,0.928,0.578,1.419,0.637c0.874,0.105,1.769,0.03,2.8,0.03v8.007C80.96,67.498,79.616,67.584,78.043,67.685"/>
<path fill="#FFFFFF" d="M90.444,49.682h7.98c0,2.436,0.105,4.878-0.035,7.305c-0.104,1.8,0.418,2.59,2.297,2.253
	c0.621-0.11,1.279-0.018,2.051-0.018v8.054c-1.086,0.06-2.16,0.063-3.215,0.207c-0.347,0.047-0.644,0.457-0.963,0.701
	c0.344,0.237,0.684,0.673,1.029,0.679c2.281,0.034,4.564,0.014,6.844-0.069c1.069-0.039,1.528,0.295,1.497,1.419
	c-0.058,2.148-0.017,4.301-0.017,6.776c-1.228,0-2.344-0.01-3.461,0.002c-4.145,0.046-8.29,0.089-12.434,0.157
	c-0.93,0.015-1.609-0.028-1.611-1.291c-0.017-8.531-0.093-17.061-0.145-25.591C90.261,50.151,90.33,50.037,90.444,49.682"/>
<path fill="#FFFFFF" d="M98.154,48.192c-2.326,0-4.603-0.037-6.877,0.015c-1.308,0.028-1.232-0.819-1.237-1.684
	c-0.034-5.228-0.072-10.457-0.107-15.685c-0.004-0.529-0.001-1.059-0.001-1.786H79.449v-8.241h18.706V48.192z"/>
<polygon fill="#FFFFFF" points="41.228,50.238 49.141,50.238 49.141,69.297 58.608,69.297 58.608,77.42 41.228,77.42 "/>
<path fill="#FFFFFF" d="M68.03,20.923v27.572c-2.373,0-4.863,0.036-7.349-0.052c-0.264-0.01-0.715-0.739-0.721-1.141
	c-0.118-8.393-0.197-16.786-0.22-25.18c-0.001-0.399,0.578-1.133,0.91-1.147C63.029,20.877,65.414,20.923,68.03,20.923"/>
<rect x="60.29" y="50.022" fill="#FFFFFF" width="7.877" height="27.285"/>
<path fill="#FFFFFF" d="M80.646,19.224h-5.111V2.36h4.949v5.632c0.187,0.005,0.374,0.009,0.561,0.014V2.39h5.316v16.807h-5.138
	v-5.601c-0.192-0.006-0.385-0.013-0.577-0.02V19.224z"/>
<path fill="#FFFFFF" d="M92.258,2.409v5.727c0.901,0.072,1.654,0.133,2.547,0.204v4.614c-0.837,0.097-1.615,0.188-2.394,0.278
	c-0.004,0.236-0.009,0.473-0.013,0.708c1.842,0.098,3.684,0.193,5.661,0.297v4.915H87.3V2.409H92.258z"/>
<polygon fill="#FFFFFF" points="69.338,7.572 63.892,7.572 63.892,2.438 74.287,2.438 74.287,19.287 69.338,19.287 "/>
</svg>
