<?xml version="1.0" encoding="utf-8"?>
<!-- Generator: Adobe Illustrator 15.1.0, SVG Export Plug-In . SVG Version: 6.00 Build 0)  -->
<!DOCTYPE svg PUBLIC "-//W3C//DTD SVG 1.1//EN" "http://www.w3.org/Graphics/SVG/1.1/DTD/svg11.dtd">
<svg version="1.1" id="Layer_1" xmlns="http://www.w3.org/2000/svg" xmlns:xlink="http://www.w3.org/1999/xlink" x="0px" y="0px"
	 width="184px" height="38px" viewBox="0 0 184 38" enable-background="new 0 0 184 38" xml:space="preserve">
<path fill="#FFFFFF" d="M39.846,20.02c0,3.254,2.534,4.522,5.412,4.522c1.884,0,4.761-0.549,4.761-3.049
	c0-2.638-3.664-3.083-7.261-4.043c-3.632-0.958-7.296-2.363-7.296-6.953c0-5,4.726-7.398,9.145-7.398
	c5.104,0,9.797,2.226,9.797,7.879h-5.207c-0.171-2.946-2.26-3.701-4.83-3.701c-1.712,0-3.699,0.721-3.699,2.776
	c0,1.883,1.165,2.122,7.296,3.699c1.781,0.444,7.261,1.575,7.261,7.124c0,4.488-3.527,7.844-10.173,7.844
	c-5.412,0-10.48-2.672-10.413-8.7H39.846z"/>
<polygon fill="#FFFFFF" points="54.917,3.68 59.781,3.68 59.781,16.799 65.913,10.428 71.667,10.428 64.988,16.938 72.42,28.138 
	66.53,28.138 61.665,20.225 59.781,22.041 59.781,28.138 54.917,28.138 "/>
<path fill="#FFFFFF" d="M87.321,28.138h-4.623v-2.465h-0.103c-1.233,1.986-3.357,2.946-5.412,2.946
	c-5.172,0-6.474-2.913-6.474-7.297V10.429h4.863V20.43c0,2.912,0.858,4.35,3.119,4.35c2.636,0,3.766-1.471,3.766-5.069v-9.282h4.864
	V28.138z"/>
<rect x="87.872" y="3.68" fill="#FFFFFF" width="4.863" height="24.458"/>
<rect x="93.282" y="3.68" fill="#FFFFFF" width="4.866" height="24.458"/>
<path fill="#FFFFFF" d="M110.615,16.663c-0.309-1.986-1.576-3.049-3.597-3.049c-3.118,0-4.146,3.151-4.146,5.755
	c0,2.535,0.992,5.583,4.041,5.583c2.262,0,3.564-1.437,3.871-3.596h4.693c-0.616,4.692-3.871,7.263-8.529,7.263
	c-5.343,0-8.941-3.769-8.941-9.079c0-5.516,3.289-9.591,9.044-9.591c4.179,0,8.015,2.193,8.322,6.714H110.615z"/>
<path fill="#FFFFFF" d="M114.587,15.875c0.276-4.555,4.353-5.926,8.325-5.926c3.529,0,7.774,0.788,7.774,5.036v9.214
	c0,1.61,0.171,3.22,0.618,3.939h-4.932c-0.174-0.549-0.31-1.129-0.344-1.711c-1.541,1.609-3.801,2.191-5.961,2.191
	c-3.355,0-6.027-1.678-6.027-5.309c0-4.007,3.014-4.968,6.027-5.379c2.982-0.445,5.756-0.342,5.756-2.328
	c0-2.092-1.439-2.398-3.152-2.398c-1.85,0-3.049,0.752-3.219,2.671H114.587z M125.824,19.471c-0.821,0.72-2.535,0.753-4.043,1.028
	c-1.506,0.308-2.877,0.822-2.877,2.603c0,1.815,1.404,2.261,2.98,2.261c3.802,0,3.939-3.014,3.939-4.075V19.471z"/>
<path fill="#FFFFFF" d="M131.226,10.429h4.625v2.467h0.101c1.236-1.988,3.359-2.947,5.414-2.947c5.172,0,6.475,2.912,6.475,7.295
	v10.894h-4.866V18.137c0-2.913-0.854-4.352-3.116-4.352c-2.637,0-3.767,1.473-3.767,5.069v9.284h-4.865V10.429z"/>
<path fill="#FFFFFF" d="M160.754,25.877h-0.069c-1.13,1.919-3.116,2.742-5.377,2.742c-5.345,0-7.947-4.592-7.947-9.49
	c0-4.761,2.638-9.18,7.843-9.18c2.09,0,4.146,0.889,5.278,2.638h-0.036h0.069V3.68h4.862v24.457h-4.623V25.877z M156.506,13.614
	c-3.186,0-4.281,2.74-4.281,5.652c0,2.775,1.268,5.685,4.281,5.685c3.22,0,4.179-2.809,4.179-5.719
	C160.685,16.354,159.658,13.614,156.506,13.614"/>
<path fill="#FFFFFF" d="M174.627,30.364c-1.062,2.844-2.74,4.008-6.097,4.008c-0.995,0-1.987-0.068-2.981-0.171v-4.008
	c0.924,0.069,1.885,0.204,2.844,0.171c1.678-0.171,2.228-1.917,1.678-3.322l-6.235-16.613h5.209l4.009,12.124h0.067l3.871-12.124
	h5.034L174.627,30.364z"/>
<path fill="#FFFFFF" d="M17.716,23.581c-2.432,0-4.407-2.034-4.407-4.544c0-2.508,1.975-4.541,4.407-4.541
	c2.436,0,4.411,2.033,4.411,4.541C22.127,21.547,20.152,23.581,17.716,23.581 M11.953,26.728c-0.474-0.56-2.375-0.631-3.12-0.349
	c-0.746,0.276-1.492-0.141-0.881-2.029c0.609-1.885,1.222-2.725,1.222-2.725s4,4.334,4.067,4.893
	C13.309,27.075,12.427,27.286,11.953,26.728 M25.177,18.967c-0.135-5.448-4-5.241-4.95-7.827c-0.949-2.585,5.357-9.296-6.238-9.296
	c-9.902,0-10.832,9.797-11.258,10.553c-0.475,0.839-1.132,1.503-1.425,2.867c-0.271,1.259,0,2.656,0.813,2.656
	c1.223,0-0.271-2.446,1.22-2.446c1.899,0,4.139,3.076,4.748,4.822c-1.016,1.819-2.44,3.006-3.459,2.518
	c-1.017-0.492-2.102-1.261-2.102-2.797c0-1.128-1.049-1.089-0.948,0.348c0.136,1.957,1.084,3.075,2.44,4.125
	c1.338,1.033,3.053,3.005,3.73,4.681c0.464,1.149,1.085,1.679,2.781,1.679c1.696,0,0.407,1.468,1.56,1.468
	c1.152,0,0.475-1.61,1.152-1.61c0.68,0-0.001,1.539,1.29,1.539c1.966,0,1.084-2.446,1.696-2.865
	C16.837,28.963,25.314,24.486,25.177,18.967"/>
<path fill="#FFFFFF" d="M178.246,26.391c0.086-0.191,0.201-0.36,0.347-0.501c0.147-0.144,0.317-0.254,0.513-0.336
	c0.193-0.08,0.399-0.121,0.618-0.121c0.22,0,0.427,0.041,0.618,0.121c0.193,0.082,0.362,0.192,0.508,0.336
	c0.145,0.141,0.26,0.31,0.346,0.501c0.084,0.194,0.127,0.404,0.127,0.628c0,0.23-0.043,0.444-0.127,0.639
	c-0.086,0.194-0.201,0.363-0.346,0.506c-0.146,0.144-0.314,0.255-0.508,0.335c-0.191,0.079-0.398,0.12-0.618,0.12
	c-0.219,0-0.425-0.041-0.618-0.12c-0.195-0.08-0.365-0.191-0.513-0.335c-0.146-0.143-0.261-0.312-0.347-0.506
	c-0.086-0.195-0.127-0.409-0.127-0.639C178.119,26.795,178.16,26.585,178.246,26.391 M178.507,27.563
	c0.067,0.166,0.161,0.311,0.278,0.434c0.117,0.121,0.257,0.218,0.418,0.286c0.16,0.07,0.334,0.105,0.521,0.105
	s0.357-0.035,0.515-0.105c0.16-0.068,0.299-0.165,0.418-0.286c0.117-0.123,0.209-0.268,0.275-0.434c0.067-0.167,0.1-0.348,0.1-0.544
	c0-0.191-0.032-0.368-0.1-0.534c-0.066-0.164-0.158-0.306-0.275-0.427c-0.119-0.122-0.258-0.216-0.418-0.286
	c-0.157-0.069-0.328-0.105-0.515-0.105s-0.36,0.036-0.521,0.105c-0.161,0.07-0.301,0.164-0.418,0.286
	c-0.117,0.121-0.211,0.263-0.278,0.427c-0.065,0.166-0.099,0.343-0.099,0.534C178.408,27.215,178.441,27.396,178.507,27.563
	 M179.822,26.093c0.221,0,0.386,0.045,0.492,0.132c0.106,0.089,0.159,0.223,0.159,0.401c0,0.169-0.047,0.292-0.14,0.37
	c-0.096,0.079-0.21,0.123-0.35,0.139l0.533,0.823h-0.312l-0.509-0.803h-0.305v0.803h-0.289v-1.865H179.822z M179.695,26.921
	c0.065,0,0.127-0.002,0.186-0.006c0.057-0.005,0.109-0.017,0.154-0.037c0.046-0.019,0.082-0.05,0.109-0.091
	c0.026-0.04,0.041-0.098,0.041-0.173c0-0.062-0.013-0.111-0.037-0.149c-0.024-0.037-0.057-0.065-0.094-0.086
	c-0.037-0.019-0.083-0.032-0.133-0.041c-0.049-0.007-0.1-0.01-0.146-0.01h-0.383v0.593H179.695z"/>
</svg>
