<?xml version="1.0" encoding="utf-8"?>
<!-- Generator: Adobe Illustrator 15.1.0, SVG Export Plug-In . SVG Version: 6.00 Build 0)  -->
<!DOCTYPE svg PUBLIC "-//W3C//DTD SVG 1.1//EN" "http://www.w3.org/Graphics/SVG/1.1/DTD/svg11.dtd">
<svg version="1.1" id="Layer_1" xmlns="http://www.w3.org/2000/svg" xmlns:xlink="http://www.w3.org/1999/xlink" x="0px" y="0px"
	 width="84px" height="85.25px" viewBox="0 0 84 85.25" enable-background="new 0 0 84 85.25" xml:space="preserve">
<path fill="#FFFFFF" d="M67.393,18.208c-0.469,0.454-0.938,0.907-1.405,1.361c-1.599,1.55-3.192,3.102-4.801,4.64
	c-0.077,0.075-0.298,0.084-0.404,0.031c-0.339-0.168-0.648-0.396-0.983-0.57c-0.264-0.137-0.284-0.322-0.217-0.577
	c0.4-1.521,0.797-3.045,1.185-4.57c0.753-2.959,1.5-5.919,2.251-8.879c0.01-0.038,0.045-0.07,0.084-0.129
	c0.683,0.416,1.362,0.823,2.028,1.251c0.071,0.048,0.107,0.235,0.08,0.336c-0.425,1.547-0.869,3.089-1.297,4.635
	c-0.396,1.431-0.778,2.865-1.105,4.365c0.359-0.34,0.723-0.672,1.075-1.017c1.844-1.805,3.69-3.609,5.524-5.425
	c0.228-0.225,0.4-0.31,0.653-0.053c0.109,0.109,0.262,0.195,0.409,0.245c0.471,0.155,0.45,0.445,0.331,0.853
	c-0.822,2.816-1.622,5.638-2.428,8.459c-0.018,0.064-0.015,0.135-0.033,0.324c0.834-0.804,1.588-1.536,2.347-2.262
	c1.401-1.339,2.806-2.672,4.206-4.009c0.209-0.199,0.379-0.23,0.646-0.043c0.553,0.39,1.146,0.72,1.776,1.105
	c-0.403,0.366-0.774,0.712-1.154,1.048c-1.688,1.495-3.378,2.987-5.07,4.479c-1.384,1.222-2.767,2.444-4.167,3.648
	c-0.114,0.097-0.358,0.076-0.536,0.053c-0.119-0.015-0.223-0.133-0.337-0.197c-0.896-0.51-0.898-0.51-0.623-1.514
	c0.615-2.24,1.234-4.479,1.848-6.719c0.073-0.271,0.125-0.549,0.186-0.824C67.439,18.238,67.416,18.223,67.393,18.208"/>
<path fill="#FFFFFF" d="M58.295,8.688c-0.099,2.597-1.029,4.808-3.075,6.476c-1.647,1.343-3.508,1.843-5.583,1.244
	c-1.835-0.531-3.155-1.702-3.902-3.457c-1.014-2.382-0.698-4.681,0.5-6.925c0.603-1.129,1.404-2.076,2.462-2.747
	c1.889-1.196,3.915-1.615,6.032-0.602c2.063,0.989,3.161,2.693,3.487,4.928c0.027,0.186,0.062,0.37,0.076,0.558
	C58.305,8.336,58.295,8.512,58.295,8.688 M55.781,8.962c-0.095-0.529-0.133-1.076-0.296-1.583c-0.398-1.24-1.204-2.122-2.521-2.368
	c-1.895-0.354-3.575,0.827-4.417,2.304c-0.754,1.321-0.887,2.754-0.494,4.201c0.404,1.486,1.368,2.409,2.819,2.432
	c1.113,0.018,2.099-0.431,2.96-1.127C55.052,11.832,55.647,10.532,55.781,8.962"/>
<path fill="#FFFFFF" d="M31.682,58c-2.593-0.041-4.873-1.819-5.684-4.398c-0.637-2.028-0.464-3.975,0.672-5.763
	c0.945-1.488,2.372-2.337,4.122-2.586c2.351-0.335,4.226,0.582,5.64,2.39c1.065,1.362,1.474,2.976,1.326,4.72
	c-0.091,1.072-0.388,2.067-0.98,2.964C35.633,57.055,33.758,58.032,31.682,58 M28.098,51.326c0.02,0.219,0.022,0.424,0.057,0.623
	c0.235,1.381,1.002,2.413,2.16,3.144c0.924,0.581,1.933,0.763,2.949,0.24c0.677-0.348,1.141-0.922,1.501-1.598
	c0.958-1.787,0.612-3.955-0.878-5.276c-1.123-0.997-2.803-1.294-4.163-0.361C28.572,48.888,28.2,50.034,28.098,51.326"/>
<path fill="#FFFFFF" d="M17.365,66.087c-0.909,0.056-1.765,0.106-2.672,0.161c-0.038-0.656-0.071-1.248-0.11-1.926
	c0.423-0.035,0.806-0.07,1.189-0.098c1.256-0.089,2.513-0.162,3.767-0.268c0.337-0.028,0.479,0.051,0.487,0.403
	c0.043,1.913-0.34,3.704-1.647,5.166c-0.856,0.956-1.987,1.47-3.258,1.665c-1.523,0.234-2.96-0.006-4.237-0.879
	c-1.001-0.686-1.736-1.633-2.152-2.77c-0.726-1.981-0.737-3.958,0.227-5.891c1.005-2.015,2.638-3.141,4.847-3.42
	c1.983-0.251,3.661,0.365,4.966,1.905c0.167,0.198,0.288,0.436,0.462,0.703c-0.682,0.42-1.349,0.83-1.958,1.205
	c-0.469-0.437-0.871-0.902-1.358-1.249c-1.12-0.793-2.927-0.515-3.849,0.505c-1.648,1.822-1.754,4.976,0.017,6.866
	c0.958,1.024,2.602,1.236,3.854,0.467c0.771-0.473,1.156-1.161,1.364-1.99C17.343,66.482,17.342,66.311,17.365,66.087"/>
<path fill="#FFFFFF" d="M67.528,45.64c0.166-0.031,0.222-0.046,0.278-0.051c1.457-0.132,1.436-0.113,2.404,1.005
	c1.045,1.207,2.141,2.37,3.209,3.558c0.889,0.988,1.77,1.985,2.653,2.979c0.042-0.014,0.084-0.025,0.126-0.037
	c0-0.144,0.007-0.287-0.001-0.43c-0.12-1.988-0.243-3.977-0.364-5.965c-0.023-0.379-0.034-0.759-0.069-1.137
	c-0.024-0.263,0.079-0.374,0.336-0.396c0.625-0.052,1.249-0.115,1.97-0.184c0.112,2.033,0.217,4.038,0.339,6.041
	c0.122,2.013,0.262,4.024,0.397,6.109c-0.498,0.048-0.999,0.108-1.502,0.132c-0.101,0.005-0.227-0.12-0.31-0.213
	c-1.566-1.745-3.124-3.498-4.692-5.241c-0.673-0.748-1.365-1.478-2.148-2.185c0.201,2.652,0.402,5.307,0.608,8.02
	c-0.75,0.067-1.472,0.132-2.28,0.205C68.163,53.768,67.846,49.716,67.528,45.64"/>
<path fill="#FFFFFF" d="M75.242,37.796c0,0.694,0.007,1.389-0.002,2.083c-0.011,0.792-0.025,1.583-0.063,2.373
	c-0.006,0.119-0.145,0.327-0.229,0.33c-0.685,0.027-1.369,0.015-2.086,0.015c0-0.783-0.011-1.525,0.002-2.268
	c0.033-1.949,0.066-3.899,0.12-5.848c0.033-1.242,0.105-2.485,0.154-3.729c0.01-0.227,0.037-0.393,0.336-0.394
	c1.283-0.006,2.567-0.069,3.849-0.029c1.008,0.032,1.941,0.38,2.517,1.262c0.291,0.446,0.499,1.001,0.565,1.528
	c0.151,1.216-0.09,2.388-0.962,3.296c-0.432,0.449-1.027,0.738-1.584,1.124c1.016,1.542,2.088,3.168,3.252,4.934
	c-0.623,0-1.144-0.03-1.657,0.007c-1.223,0.091-1.261,0.037-1.856-1.028c-0.694-1.246-1.468-2.449-2.207-3.671
	C75.342,37.786,75.292,37.791,75.242,37.796 M75.498,32.331c-0.054,0.98-0.107,1.957-0.161,2.934
	c-0.045,0.812-0.037,0.819,0.77,0.729c1.137-0.127,1.793-0.63,1.907-1.643c0.14-1.232-0.177-1.816-1.225-2.008
	C76.381,32.269,75.949,32.331,75.498,32.331"/>
<path fill="#FFFFFF" d="M19.439,24.96c0.879,0.086,1.672,0.164,2.467,0.242c0,0.808,0.021,1.565-0.005,2.322
	c-0.035,1.05-0.124,2.101-0.152,3.15c-0.029,1.096-0.078,2.197-0.002,3.287c0.108,1.542,1.227,2.408,2.743,2.055
	c0.621-0.146,0.938-0.6,1.169-1.143c0.419-0.98,0.408-2.025,0.464-3.06c0.112-2.052,0.213-4.104,0.322-6.224
	c0.773,0.073,1.521,0.137,2.266,0.227c0.062,0.009,0.148,0.201,0.144,0.304c-0.094,1.839-0.188,3.677-0.309,5.514
	c-0.066,1.019-0.103,2.051-0.296,3.049c-0.493,2.554-2.309,3.819-4.883,3.486c-1.212-0.157-2.296-0.576-3.088-1.564
	c-0.575-0.718-0.915-1.559-0.955-2.453c-0.06-1.352,0.002-2.71,0.026-4.065c0.02-1.124,0.062-2.248,0.087-3.372
	C19.449,26.161,19.439,25.606,19.439,24.96"/>
<path fill="#FFFFFF" d="M61.712,27.184c0.73,0,1.443-0.012,2.155,0.017c0.072,0.003,0.195,0.25,0.192,0.382
	c-0.029,1.947-0.057,3.896-0.127,5.841c-0.039,1.049-0.051,2.118-0.265,3.139c-0.426,2.021-1.683,3.085-3.722,3.355
	c-0.856,0.114-1.699,0.052-2.511-0.246c-1.311-0.481-2.009-1.5-2.356-2.798c-0.324-1.207-0.244-2.437-0.231-3.667
	c0.02-1.786,0.002-3.572-0.019-5.357c-0.006-0.365,0.11-0.493,0.479-0.479c0.626,0.026,1.253,0.008,1.908,0.008
	c0,1.258-0.015,2.496,0.004,3.733c0.025,1.661-0.012,3.329,0.142,4.979c0.13,1.391,1.177,2.096,2.521,1.753
	c0.737-0.187,1.164-0.734,1.399-1.443c0.375-1.124,0.273-2.288,0.296-3.441c0.034-1.801,0.065-3.603,0.1-5.404
	C61.68,27.455,61.695,27.356,61.712,27.184"/>
<path fill="#FFFFFF" d="M23.602,10.892c-0.744-0.308-1.391-0.517-2.095-0.26c-0.628,0.229-0.979,0.679-1.073,1.321
	c-0.083,0.564,0.093,1.107,0.58,1.369c0.443,0.237,0.988,0.316,1.499,0.387c0.429,0.059,0.874,0.01,1.312,0
	c2.197-0.05,3.521,0.956,4.227,3.012c0.46,1.343,0.469,2.656-0.336,3.91c-0.789,1.229-2.747,2.076-4.149,1.677
	c-0.678-0.193-1.316-0.529-1.961-0.828c-0.104-0.049-0.229-0.267-0.2-0.364c0.189-0.636,0.417-1.261,0.597-1.78
	c0.641,0.271,1.236,0.62,1.88,0.771c0.763,0.182,1.437-0.14,1.812-0.848c0.354-0.668,0.179-1.344-0.21-1.95
	c-0.502-0.783-1.289-0.906-2.147-0.92c-0.917-0.015-1.858-0.004-2.743-0.204c-1.416-0.318-2.127-1.443-2.524-2.734
	c-0.438-1.429-0.263-2.808,0.81-3.921c0.901-0.937,2.092-1.217,3.362-1.151c0.404,0.021,0.811,0.087,1.203,0.18
	c0.141,0.033,0.354,0.214,0.349,0.318C23.76,9.526,23.676,10.174,23.602,10.892"/>
<path fill="#FFFFFF" d="M56.666,54.855c0.212-0.742,0.395-1.386,0.58-2.028c0.976-3.366,1.962-6.729,2.914-10.103
	c0.127-0.449,0.362-0.61,0.778-0.638c0.321-0.021,0.64-0.083,0.96-0.081c0.118,0.001,0.293,0.108,0.344,0.214
	c0.487,1.01,0.957,2.026,1.425,3.046c1.208,2.632,2.411,5.266,3.617,7.899c0.096,0.207,0.192,0.415,0.314,0.678
	c-0.78,0.071-1.501,0.146-2.225,0.19c-0.1,0.006-0.255-0.123-0.306-0.228c-0.305-0.617-0.57-1.254-0.888-1.862
	c-0.072-0.139-0.301-0.29-0.448-0.281c-1.184,0.078-2.366,0.191-3.549,0.298c-0.237,0.021-0.378,0.129-0.444,0.392
	c-0.169,0.667-0.371,1.324-0.578,1.98c-0.036,0.117-0.15,0.285-0.245,0.297C58.205,54.72,57.491,54.777,56.666,54.855
	 M60.348,50.066c1.005-0.093,1.91-0.177,2.893-0.269c-0.621-1.424-1.206-2.766-1.791-4.108c-0.038,0.009-0.076,0.017-0.115,0.025
	C61.013,47.13,60.692,48.545,60.348,50.066"/>
<path fill="#FFFFFF" d="M13.33,23.923c-0.591-0.328-1.186-0.779-1.857-1.011c-2.182-0.753-4.065,0.603-4.454,2.797
	c-0.271,1.533,0.068,2.929,0.99,4.182c1.1,1.494,3.253,2.09,4.89,0.938c0.212-0.15,0.437-0.281,0.755-0.485
	c0,0.921,0.009,1.785-0.012,2.649c-0.001,0.086-0.151,0.203-0.256,0.248c-2.578,1.109-5.299,0.274-7.091-1.709
	c-1.388-1.537-1.999-3.369-1.945-5.383c0.067-2.505,1.257-4.644,3.756-5.568c1.563-0.579,3.145-0.397,4.672,0.307
	c0.412,0.19,0.564,0.429,0.557,0.853C13.319,22.498,13.33,23.257,13.33,23.923"/>
<path fill="#FFFFFF" d="M11.204,50.421c0.084,0.596,0.151,1.118,0.232,1.637c0.045,0.287-0.059,0.43-0.352,0.473
	c-1.939,0.286-3.879,0.576-5.816,0.877c-0.246,0.038-0.31-0.062-0.338-0.271c-0.316-2.225-0.629-4.451-0.957-6.674
	c-0.249-1.69-0.52-3.376-0.779-5.064c-0.006-0.042,0.003-0.087,0.008-0.196c2.131-0.309,4.271-0.618,6.439-0.933
	c0.114,0.732,0.218,1.386,0.327,2.078c-1.379,0.194-2.69,0.378-4.05,0.569c0.149,0.914,0.291,1.781,0.44,2.69
	c1.312-0.188,2.576-0.371,3.874-0.558c0.108,0.631,0.226,1.226,0.293,1.827c0.01,0.086-0.218,0.268-0.354,0.291
	c-1.055,0.173-2.113,0.324-3.174,0.466c-0.25,0.033-0.35,0.069-0.295,0.376c0.146,0.802,0.241,1.613,0.342,2.423
	c0.067,0.535,0.095,0.56,0.608,0.478c0.981-0.156,1.962-0.306,2.944-0.45C10.795,50.431,10.998,50.434,11.204,50.421"/>
<path fill="#FFFFFF" d="M35.239,62.366c-0.104,0.663-0.201,1.296-0.311,1.999c-0.601-0.076-1.187-0.149-1.772-0.227
	c-0.593-0.078-1.186-0.172-1.78-0.229c-0.12-0.012-0.351,0.088-0.365,0.167c-0.146,0.803-0.26,1.61-0.387,2.447
	c1.259,0.169,2.469,0.333,3.748,0.505c-0.105,0.671-0.208,1.323-0.319,2.036c-1.257-0.159-2.469-0.313-3.739-0.475
	c-0.096,0.549-0.194,1.09-0.281,1.632c-0.068,0.419-0.096,0.846-0.188,1.26c-0.073,0.328,0.02,0.447,0.349,0.487
	c1.04,0.128,2.076,0.294,3.117,0.418c0.275,0.032,0.357,0.136,0.316,0.39c-0.089,0.56-0.173,1.121-0.264,1.71
	c-2.095-0.274-4.148-0.542-6.25-0.816c0.136-0.923,0.261-1.814,0.396-2.704c0.398-2.596,0.799-5.19,1.199-7.786
	c0.067-0.432,0.152-0.861,0.213-1.295c0.037-0.266,0.144-0.383,0.434-0.342c1.461,0.208,2.923,0.402,4.385,0.604
	C34.228,62.214,34.714,62.289,35.239,62.366"/>
<path fill="#FFFFFF" d="M42.583,54.207c0.498,0.561,0.968,1.018,1.676,1.172c0.699,0.15,1.58-0.052,1.964-1.049
	c0.305-0.79-0.132-1.85-0.931-2.13c-0.532-0.186-1.105-0.262-1.663-0.364c-0.748-0.137-1.494-0.256-2.138-0.71
	c-0.951-0.671-1.309-1.633-1.312-2.735c-0.005-1.706,0.886-2.844,2.377-3.363c1.201-0.419,2.451-0.244,3.616,0.307
	c0.078,0.036,0.13,0.272,0.093,0.384c-0.162,0.498-0.36,0.984-0.563,1.521c-0.562-0.364-1.142-0.599-1.812-0.512
	c-0.693,0.09-1.296,0.664-1.337,1.306c-0.038,0.58,0.25,1.092,0.827,1.244c0.773,0.205,1.572,0.316,2.357,0.479
	c2.231,0.464,3.001,2.2,2.868,4.228c-0.172,2.637-2.875,4.075-5.115,3.311c-0.67-0.229-1.247-0.74-1.851-1.146
	c-0.066-0.045-0.082-0.283-0.026-0.378C41.91,55.256,42.236,54.759,42.583,54.207"/>
<path fill="#FFFFFF" d="M51.894,66.666c-0.073,0.714-0.137,1.336-0.203,1.986c-0.627-0.051-1.237-0.098-1.846-0.149
	c-0.596-0.052-1.191-0.107-1.832-0.165c-0.117,1.103-0.231,2.183-0.354,3.327c1.299,0.12,2.557,0.237,3.847,0.356
	c-0.062,0.662-0.12,1.282-0.187,1.993c-2.056-0.168-4.073-0.333-6.148-0.502c0.399-4.017,0.797-7.997,1.197-12.026
	c0.627,0.044,1.219,0.075,1.809,0.129c1.296,0.119,2.591,0.263,3.889,0.368c0.352,0.028,0.462,0.158,0.41,0.492
	c-0.049,0.317-0.091,0.638-0.102,0.959c-0.019,0.564-0.06,0.603-0.608,0.546c-0.961-0.1-1.925-0.169-2.883-0.286
	c-0.375-0.045-0.454,0.104-0.474,0.428c-0.033,0.569-0.067,1.144-0.168,1.703c-0.072,0.407,0.009,0.544,0.439,0.569
	C49.728,66.454,50.771,66.567,51.894,66.666"/>
<path fill="#FFFFFF" d="M65.68,60.36c-0.332,0.542-0.645,1.051-0.992,1.618c-0.165-0.146-0.31-0.279-0.459-0.405
	c-0.913-0.763-2.331-0.521-2.734,0.467c-0.249,0.611,0.004,1.252,0.662,1.554c0.756,0.348,1.539,0.638,2.298,0.979
	c1.555,0.7,2.062,1.992,1.936,3.581c-0.11,1.387-0.676,2.546-1.986,3.201c-1.342,0.671-2.673,0.632-3.972-0.14
	c-0.619-0.368-1.093-0.876-1.47-1.528c0.43-0.481,0.863-0.969,1.28-1.436c0.306,0.334,0.581,0.663,0.884,0.962
	c0.631,0.621,1.691,0.74,2.243,0.27c0.745-0.636,0.925-1.682,0.347-2.44c-0.216-0.283-0.585-0.479-0.922-0.634
	c-0.701-0.32-1.446-0.544-2.139-0.88c-1.154-0.562-1.607-1.547-1.584-2.803c0.042-2.326,1.954-3.859,4.236-3.422
	C64.173,59.472,64.95,59.781,65.68,60.36"/>
<path fill="#FFFFFF" d="M32.903,4.807c0.617,1.419,1.216,2.799,1.817,4.179c0.533,1.224,1.066,2.446,1.6,3.67
	c0.342,0.787,0.69,1.573,1.021,2.366c0.123,0.295,0.194,0.447,0.585,0.241c0.909-0.479,1.861-0.875,2.839-1.323
	c0.292,0.7,0.574,1.376,0.87,2.084c-0.815,0.383-1.589,0.753-2.369,1.111c-0.915,0.42-1.84,0.818-2.75,1.249
	c-0.306,0.144-0.433,0.063-0.561-0.23c-1.052-2.421-2.116-4.836-3.178-7.253c-0.686-1.562-1.367-3.128-2.064-4.685
	c-0.115-0.256-0.067-0.342,0.184-0.451C31.559,5.476,32.202,5.145,32.903,4.807"/>
<path fill="#FFFFFF" d="M45.461,37.306c0-1.021,0.012-2.014-0.002-3.006c-0.029-2.297-0.076-4.594-0.102-6.89
	c-0.004-0.353-0.146-0.403-0.459-0.391c-0.669,0.028-1.34,0.009-2.08,0.009v-2.062c2.427-0.064,4.898-0.129,7.459-0.197
	c0,0.668,0.012,1.291-0.015,1.911c-0.004,0.083-0.209,0.217-0.327,0.224c-0.555,0.032-1.114,0.054-1.669,0.031
	c-0.416-0.016-0.525,0.146-0.521,0.542c0.022,1.857,0.006,3.714,0.025,5.571c0.012,1.271,0.052,2.543,0.095,3.813
	c0.011,0.313-0.073,0.458-0.41,0.449C46.844,37.294,46.229,37.306,45.461,37.306"/>
<path fill="#FFFFFF" d="M18.476,52.929c-1.016-3.98-2.016-7.898-3.032-11.887c0.732-0.175,1.448-0.353,2.169-0.504
	c0.063-0.014,0.211,0.131,0.236,0.226c0.297,1.106,0.579,2.218,0.864,3.328c0.322,1.261,0.646,2.522,0.967,3.784
	c0.171,0.673,0.344,1.346,0.506,2.02c0.065,0.276,0.127,0.43,0.496,0.325c0.95-0.27,1.917-0.475,2.951-0.724
	c0.158,0.657,0.313,1.3,0.482,1.999C22.211,51.979,20.367,52.448,18.476,52.929"/>
<path fill="#FFFFFF" d="M33.81,39.925c0.229-1.095,0.452-2.15,0.67-3.207c0.289-1.416,0.569-2.834,0.858-4.249
	c0.265-1.287,0.534-2.572,0.801-3.858c0.016-0.07,0.028-0.142,0.037-0.213c0.066-0.5,0.125-0.533,0.619-0.412
	c0.494,0.122,0.991,0.237,1.491,0.335c0.261,0.053,0.327,0.163,0.271,0.428c-0.373,1.744-0.739,3.488-1.096,5.236
	c-0.301,1.474-0.585,2.949-0.885,4.464c1,0.221,1.964,0.447,2.934,0.638c0.249,0.048,0.342,0.124,0.29,0.365
	c-0.098,0.455-0.193,0.911-0.292,1.367c-0.045,0.209-0.124,0.343-0.39,0.285c-1.615-0.348-3.233-0.683-4.849-1.025
	C34.129,40.048,33.995,39.987,33.81,39.925"/>
<path fill="#FFFFFF" d="M38.943,70.51c0.605-0.04,1.247-0.078,1.887-0.128c0.257-0.02,0.369,0.071,0.379,0.342
	c0.067,1.696,0.14,3.393,0.223,5.089c0.044,0.921,0.116,1.84,0.17,2.761c0.034,0.57,0.06,1.14,0.078,1.711
	c0.01,0.306,0.135,0.385,0.443,0.358c0.943-0.083,1.89-0.126,2.909-0.189c0.041,0.698,0.079,1.334,0.118,1.997
	c-0.137,0.027-0.247,0.062-0.359,0.069c-1.62,0.124-3.242,0.236-4.86,0.373c-0.322,0.026-0.446-0.052-0.461-0.383
	c-0.084-1.829-0.182-3.657-0.279-5.485c-0.079-1.477-0.176-2.951-0.242-4.428C38.918,71.928,38.943,71.255,38.943,70.51"/>
</svg>
