<?xml version="1.0" encoding="utf-8"?>
<!-- Generator: Adobe Illustrator 15.1.0, SVG Export Plug-In . SVG Version: 6.00 Build 0)  -->
<!DOCTYPE svg PUBLIC "-//W3C//DTD SVG 1.1//EN" "http://www.w3.org/Graphics/SVG/1.1/DTD/svg11.dtd">
<svg version="1.1" id="Layer_1" xmlns="http://www.w3.org/2000/svg" xmlns:xlink="http://www.w3.org/1999/xlink" x="0px" y="0px"
	 width="184px" height="40.25px" viewBox="0 0 184 40.25" enable-background="new 0 0 184 40.25" xml:space="preserve">
<path fill="#FFFFFF" d="M15.575,11.124c0,1.294,0.227,3.721,0.841,7.345c0.615,3.688,0.874,6.405,0.421,8.379
	c-0.421,1.812-1.78,3.592-5.08,3.592c-1.876,0-3.721-0.744-4.659-1.358c-0.452-0.324-0.679-0.777-0.615-1.393
	c0.065-0.322,0.227-0.808,0.388-1.066c0.195-0.259,0.26-0.324,0.648-0.064c1.099,0.743,2.621,1.488,4.206,1.488
	c1.617,0,2.491-0.81,2.814-1.942c0.357-1.391,0.13-4.206-0.42-7.377c-0.323-1.909-0.906-5.403-0.938-7.571
	c0-1.552,0.291-3.105,0.873-4.399c-2.232-0.519-4.335-1.068-6.503-1.068C5.836,5.721,3.992,6.174,2.374,7.015
	C2.051,7.177,1.857,7.144,1.792,6.82C1.727,6.562,1.695,6.012,1.727,5.688C1.76,5.267,1.954,4.847,2.504,4.491
	c1.683-1.004,3.915-1.164,5.015-1.164c3.009-0.033,6.212,0.971,8.444,1.358c2.686-1.392,7.798-1.068,8.219,0.387
	c0.517,1.846-4.337,2.493-7.636,2.104C15.737,8.406,15.575,10.089,15.575,11.124"/>
<path fill="#FFFFFF" d="M26.704,18.177c1.391,0.259,1.456,1.747,1.714,4.595c0.259,2.718,0.68,3.753,1.392,3.786
	c1.003,0.063,1.78-0.939,2.782-2.33c0.227-0.324,0.453-0.26,0.648-0.032c0.193,0.227,0.42,0.615,0.517,0.873
	c0.13,0.355,0.227,0.906-0.13,1.392c-0.678,0.938-2.167,2.75-3.882,2.782c-1.909,0.032-2.911-1.553-3.268-3.72
	c-0.323-2.007-0.323-3.915-0.744-3.98c-0.646-0.097-2.653,3.688-3.785,7.798c-0.13,0.452-0.324,0.68-0.777,0.647
	c-0.679-0.065-1.133-0.551-1.359-1.683c-0.971-4.821-0.971-15.781-0.388-21.056c0.097-0.873,0.485-1.229,0.874-1.488
	c0.291-0.193,0.744-0.485,1.132-0.614c0.388-0.13,0.68,0.097,0.615,0.646c-0.421,4.206-0.712,12.836-0.486,18.11
	C22.724,20.668,24.958,17.854,26.704,18.177"/>
<path fill="#FFFFFF" d="M38.125,27.237c2.2,0.129,3.882-0.81,5.403-3.011c0.226-0.323,0.42-0.258,0.647-0.031
	c0.194,0.194,0.421,0.614,0.518,0.873c0.13,0.356,0.226,0.905-0.13,1.392c-1.132,1.521-3.17,3.236-6.503,3.17
	c-2.782-0.063-5.694-1.552-5.791-5.37c-0.065-2.977,2.038-6.341,5.144-6.341c1.779,0,3.236,1.326,3.203,3.267
	c-0.032,2.039-1.941,4.529-4.756,5.274C36.41,26.913,37.187,27.171,38.125,27.237 M38.06,21.186
	c-0.033-0.518-0.388-0.873-0.809-0.841c-1.197,0.064-2.394,1.78-2.394,3.753c0,0.162,0,0.324,0.032,0.453
	C37.057,23.807,38.092,22.157,38.06,21.186"/>
<path fill="#FFFFFF" d="M49.1,12.902c0.324-5.563,7.959-9.156,13.557-9.058c4.497,0.063,5.889,2.167,5.727,4.076
	c-0.195,2.298-2.265,4.497-4.789,5.693c-0.582,0.292-1.035,0.194-1.359,0.033c-0.291-0.098-0.615-0.388-0.808-0.615
	c-0.195-0.227-0.195-0.484,0.129-0.647c2.426-1.229,4.109-3.17,4.206-4.367c0.064-0.841-0.583-1.748-3.3-1.714
	c-4.174,0.032-10.645,3.073-10.775,6.695c-0.097,2.558,3.009,3.916,7.216,5.404c4.691,1.65,8.153,3.203,7.894,6.827
	c-0.259,3.753-4.368,5.532-9.091,5.306c-2.104-0.097-5.015-1.262-6.374-2.459c-0.324-0.322-0.582-0.614-0.518-1.165
	c0.032-0.354,0.194-0.742,0.291-0.938c0.162-0.324,0.356-0.388,0.712-0.129c1.747,1.261,4.206,2.167,5.889,2.264
	c3.041,0.194,6.341-0.841,6.406-2.911c0.064-1.619-1.91-2.912-5.921-4.368C53.985,19.31,48.809,17.982,49.1,12.902"/>
<path fill="#FFFFFF" d="M79.868,24.227c0.259-0.355,0.454-0.258,0.679-0.031c0.195,0.194,0.421,0.614,0.518,0.873
	c0.13,0.356,0.226,0.905-0.129,1.392c-1.294,1.747-3.139,3.364-5.824,2.329c-0.55,0.292-1.197,0.421-1.844,0.421
	c-1.456-0.033-2.394-1.132-2.168-2.2c0.227-1.003,1.554-0.355,2.556-0.162c0.55-0.484,0.873-1.521,0.873-2.49
	c-0.032-2.2-0.873-3.689-1.779-3.689c-0.938,0-2.848,2.071-2.912,6.115c-0.064,4.271,0.227,8.735,0.583,11.615
	c0.064,0.519-0.227,0.68-0.647,0.582c-0.389-0.096-0.842-0.322-1.166-0.55c-0.42-0.291-0.808-0.582-0.906-1.423
	c-0.582-4.982-0.355-15.337,0.551-20.189c0.097-0.453,0.323-0.551,0.647-0.42c0.356,0.129,0.68,0.452,0.906,0.711
	c0.323,0.355,0.486,0.841,0.388,1.65c-0.032,0.291-0.065,0.55-0.097,0.809c0.841-1.003,1.812-1.423,2.718-1.456
	c2.006-0.064,4.238,2.33,4.303,6.277c0,0.97-0.13,1.779-0.388,2.427C77.991,26.654,78.833,25.651,79.868,24.227"/>
<path fill="#FFFFFF" d="M83.621,29.372c-1.973-0.032-4.077-1.585-4.045-4.854c0.033-3.592,2.945-6.406,5.695-6.406
	c0.874,0,1.618,0.193,2.265,0.647c0.259-0.486,0.615-0.777,1.1-0.647c1.035,0.259,1.521,1.845,1.553,3.01
	c0.033,1.326-0.259,2.847-0.906,4.011c0.162,0.971,0.615,1.586,1.133,1.586c1.132,0,1.844-1.1,2.879-2.492
	c0.227-0.322,0.421-0.258,0.648-0.032c0.194,0.195,0.421,0.615,0.517,0.873c0.13,0.357,0.226,0.907-0.129,1.393
	c-0.68,0.938-2.168,2.75-3.915,2.783c-1.23,0.031-2.136-0.712-2.751-1.909C86.629,28.562,85.303,29.404,83.621,29.372
	 M85.433,20.539c-1.488,0.063-3.235,1.553-3.332,3.883c-0.065,1.424,0.679,2.232,1.585,2.362c1.262,0.16,2.459-0.744,3.268-1.975
	c-0.065-0.646-0.097-1.327-0.097-2.038c0-0.646,0.065-1.295,0.129-1.908C86.533,20.603,86.016,20.507,85.433,20.539"/>
<path fill="#FFFFFF" d="M94.264,26.558c-0.258,0.355-0.453,0.226-0.647,0c-0.226-0.194-0.486-0.68-0.614-0.972
	c-0.13-0.291-0.13-0.744,0.226-1.294c0.873-1.165,1.618-2.977,1.974-4.174c-0.68-0.485-1.263-1.423-1.295-2.492
	c-0.032-0.743,0.292-1.52,1.23-1.617c1.035-0.097,2.232,1.004,2.362,2.589c0.777,0.226,1.682,0.226,2.459,0.389
	c1.326,0.258,1.844,0.971,1.682,2.556c-0.193,2.005-0.355,4.659,0.68,5.016c0.842,0.291,1.748-0.939,2.783-2.33
	c0.226-0.324,0.42-0.26,0.646-0.032c0.193,0.194,0.42,0.615,0.518,0.873c0.129,0.355,0.227,0.906-0.13,1.392
	c-0.679,0.938-2.168,2.782-3.913,2.782c-2.299,0-3.69-2.265-3.14-7.312c0.065-0.647-0.033-0.906-0.679-1.004
	c-0.389-0.064-0.81-0.097-1.23-0.16C96.594,22.706,95.591,24.713,94.264,26.558"/>
<path fill="#FFFFFF" d="M110.635,27.237c2.201,0.129,3.883-0.81,5.404-3.011c0.226-0.323,0.421-0.258,0.646-0.031
	c0.194,0.194,0.42,0.614,0.518,0.873c0.13,0.356,0.227,0.905-0.129,1.392c-1.133,1.521-3.172,3.236-6.504,3.17
	c-2.782-0.063-5.694-1.552-5.791-5.37c-0.065-2.977,2.039-6.341,5.145-6.341c1.779,0,3.236,1.326,3.202,3.267
	c-0.032,2.039-1.94,4.529-4.756,5.274C108.921,26.913,109.697,27.171,110.635,27.237 M110.57,21.186
	c-0.031-0.518-0.389-0.873-0.809-0.841c-1.197,0.064-2.395,1.78-2.395,3.753c0,0.162,0,0.324,0.031,0.453
	C109.568,23.807,110.604,22.157,110.57,21.186"/>
<path fill="#FFFFFF" d="M149.67,20.557c0.652-0.135,1.109-0.366,1.529-0.787c0.229-0.229,0.357,1.592,0,1.914
	c-0.312,0.281-0.822,0.607-1.717,0.751l-0.641-0.213c0.162,0.646,0.228,1.294,0.228,1.974c-0.065,2.782-1.812,5.272-4.983,5.339
	c-3.17,0.064-5.08-2.719-5.047-5.631c0.032-1.812,0.775-3.818,2.395-4.788c0.775-0.453,1.295-0.518,1.779-0.097
	c0.096-0.647,0.551-1.133,1.392-1.133c1.325-0.032,2.588,0.906,3.43,2.329C148.186,20.484,148.674,20.761,149.67,20.557
	 M143.471,20.539c-1.131,0.485-1.973,1.683-1.973,3.462c0.032,1.747,1.035,3.074,2.653,3.074c1.584,0,2.459-1.553,2.459-3.139
	c0-0.421-0.065-0.842-0.13-1.198C144.961,22.544,143.924,21.574,143.471,20.539 M151.199,21.684
	c-0.312,0.281-1.252,0.769-1.717,0.751s-0.641-0.213-0.641-0.213"/>
<path fill="#FFFFFF" d="M160.842,19.268c0.268-0.316,1.403-0.891,1.565-0.665c0.194,0.26,0.233,0.846,0.266,1.104
	c0.032,0.421-2.021,1.98-2.405,2.2c-0.457,0.259-0.754,0.424-0.754,0.424c0.162,0.647,0.143,1.185,0.143,1.863
	c-0.064,2.783-1.811,5.274-4.982,5.34c-3.171,0.063-5.08-2.719-5.048-5.63c0.033-1.812,0.776-3.818,2.396-4.789
	c0.775-0.452,1.293-0.518,1.779-0.097c0.098-0.647,0.549-1.133,1.391-1.133c1.326-0.032,2.588,0.906,3.43,2.329
	C158.88,20.548,159.868,20.42,160.842,19.268 M154.059,20.539c-1.132,0.484-1.974,1.682-1.974,3.462
	c0.033,1.747,1.035,3.074,2.653,3.074c1.586,0,2.459-1.554,2.459-3.139c0-0.421-0.064-0.842-0.129-1.197
	C155.547,22.545,154.512,21.574,154.059,20.539"/>
<path fill="#FFFFFF" d="M174.475,18.823c1.424,0.228,1.617,1.909,1.78,4.336c0.161,2.557,0.549,3.301,1.261,3.398
	c0.906,0.129,1.682-0.939,2.717-2.331c0.228-0.323,0.422-0.226,0.648,0c0.193,0.195,0.42,0.583,0.518,0.842
	c0.129,0.356,0.227,0.938-0.129,1.424c-0.68,0.905-2.104,2.75-3.916,2.782c-1.875,0.032-2.781-1.326-3.105-3.138
	c-0.29-1.715-0.098-3.98-0.551-3.98c-0.809,0-2.264,3.592-3.137,6.213c-0.162,0.453-0.486,0.711-0.908,0.68
	c-0.678-0.032-1.229-0.39-1.487-1.456c-0.452-1.975-0.291-6.602-1.293-6.472c-1.036,0.13-2.558,4.238-3.074,8.348
	c-0.065,0.421-0.259,0.551-0.614,0.518c-0.324-0.033-0.713-0.129-0.972-0.291c-0.323-0.194-0.615-0.518-0.776-1.165
	c-0.647-2.556-0.777-6.6-0.484-8.735c0.096-0.842-0.025-0.418,0.363-0.742c0.258-0.227,0.352-0.342,0.771-0.472
	c0.421-0.13,1.07,0.258,1.07,0.985c0,0.404-0.006,2.494-0.039,3.981c0.713-2.911,2.232-5.437,4.175-5.437
	c1.649,0,2.491,2.427,2.75,5.372C171.109,20.669,172.889,18.565,174.475,18.823"/>
<path fill="#FFFFFF" d="M128.047,19.947c-0.459-4.145,0.086-7.934,0.34-10.655c0.062-0.553-0.254-0.799-0.652-0.771
	c-0.403,0.027-0.895,0.29-1.18,0.531c-0.383,0.311-0.902,0.712-0.998,1.607c-0.254,2.31-0.405,6.325-0.198,9.524
	c0.358,5.566,0.808,7.193,1.337,9.066c0.2,0.704,0.422,1.088,0.704,1.313c0.721,0.577,1.432,0.365,1.694,0.253
	c0.27-0.116,0.336-0.563,0.272-0.942c-0.319-2.239-0.614-4.33-0.806-6.063c1.342,0.808,3.177,2.009,5.443,3.502
	c2.323,1.529,3.243,2.289,4.25,3.005c0.324,0.23,0.741,0.335,1.041,0.087c0.246-0.202,0.459-0.754,0.523-1.133
	c0.062-0.482,0-0.827-0.445-1.275c-1.48-1.506-6-4.479-8.449-5.926l0.588-0.159c3.85-1.426,8.009-5.218,7.763-9.497
	c-0.369-6.371-6.985-10.944-13.394-10.834c-5.149,0.075-7.602,1.839-7.812,5.019c-0.177,2.634,0.972,4.31,3.606,6.09
	c0.617,0.417,1.186,0.222,1.557,0.037c0.333-0.112,0.703-0.445,0.926-0.704s0.209-0.532-0.148-0.74
	c-2.637-1.539-3.803-2.316-3.641-4.552c0.203-2.792,4.236-2.898,6.273-2.676c1.863,0.206,3.711,0.666,5.312,1.674
	c1.549,0.974,3.12,2.309,3.982,3.952c0.4,0.766,0.74,1.763,0.777,2.636C136.861,15.731,134.137,18.991,128.047,19.947"/>
</svg>
