<?xml version="1.0" encoding="utf-8"?>
<!-- Generator: Adobe Illustrator 15.1.0, SVG Export Plug-In . SVG Version: 6.00 Build 0)  -->
<!DOCTYPE svg PUBLIC "-//W3C//DTD SVG 1.1//EN" "http://www.w3.org/Graphics/SVG/1.1/DTD/svg11.dtd">
<svg version="1.1" id="Layer_1" xmlns="http://www.w3.org/2000/svg" xmlns:xlink="http://www.w3.org/1999/xlink" x="0px" y="0px"
	 width="143.75px" height="34.75px" viewBox="0 0 143.75 34.75" enable-background="new 0 0 143.75 34.75" xml:space="preserve">
<path fill="#FFFFFF" d="M126.53,1.613c-8.818,0-15.964,7.146-15.964,15.961c0,8.818,7.146,15.969,15.964,15.969
	c8.814,0,15.964-7.151,15.964-15.969C142.494,8.759,135.345,1.613,126.53,1.613 M136.702,17.987l-4.47,4.468l4.178,4.177
	c0.233,0.234,0.233,0.615,0,0.849c-0.118,0.117-0.272,0.176-0.425,0.176c-0.154,0-0.309-0.059-0.426-0.176l-4.177-4.177
	l-4.441,4.441c-0.117,0.117-0.271,0.176-0.426,0.176c-0.151,0-0.307-0.059-0.424-0.176l-4.429-4.429l-4.164,4.165
	c-0.117,0.117-0.272,0.176-0.425,0.176c-0.153,0-0.309-0.059-0.425-0.176c-0.234-0.234-0.234-0.615,0-0.849l4.163-4.166
	l-4.452-4.455c-0.234-0.234-0.234-0.615,0-0.849l4.44-4.44l-4.177-4.176c-0.234-0.235-0.234-0.616,0-0.85
	c0.234-0.234,0.615-0.234,0.85,0l4.177,4.177l4.468-4.468c0.233-0.234,0.615-0.234,0.85,0l4.455,4.454l4.163-4.163
	c0.235-0.234,0.615-0.234,0.849,0c0.235,0.234,0.235,0.615,0,0.85l-4.163,4.163l4.431,4.428c0.11,0.113,0.176,0.266,0.176,0.425
	S136.812,17.875,136.702,17.987"/>
<rect x="118.817" y="14.745" transform="matrix(0.7072 -0.707 0.707 0.7072 23.1777 91.1597)" fill="#FFFFFF" width="5.679" height="5.699"/>
<rect x="123.687" y="9.857" transform="matrix(0.7072 0.707 -0.707 0.7072 46.0354 -85.7358)" fill="#FFFFFF" width="5.699" height="5.718"/>
<rect x="123.692" y="19.621" transform="matrix(-0.7071 -0.7071 0.7071 -0.7071 200.0995 127.8129)" fill="#FFFFFF" width="5.663" height="5.68"/>
<rect x="128.572" y="14.722" transform="matrix(-0.7071 -0.7071 0.7071 -0.7071 211.8807 122.9355)" fill="#FFFFFF" width="5.663" height="5.719"/>
<path fill="#FFFFFF" d="M31.596,5.697H18.474v3.054h4.57c0.086,0,0.179,0.034,0.231,0.096c0.076,0.064,0.113,0.151,0.113,0.235
	l-0.01,20.377h3.32V9.083c0-0.084,0.037-0.171,0.105-0.235c0.062-0.062,0.142-0.096,0.236-0.096h4.555V5.697z"/>
<path fill="#FFFFFF" d="M60.716,24.263c0,0.165-0.119,0.307-0.272,0.337c-0.169,0.028-0.33-0.06-0.385-0.218L53.214,5.698h-3.797
	v23.761h3.333l-0.276-16.785c0-0.166,0.11-0.316,0.276-0.341c0.025-0.005,0.038-0.005,0.06-0.005c0.153,0,0.269,0.089,0.32,0.223
	l6.33,16.908h4.306V5.698h-3.34L60.716,24.263z"/>
<path fill="#FFFFFF" d="M8.319,5.697C6.543,5.72,5.335,6.157,4.55,7.005c-0.792,0.846-1.211,2.174-1.24,4.098v2.122
	c0,0.855,0.096,1.558,0.267,2.032c0.166,0.48,0.388,0.806,0.767,1.101c0.354,0.301,1.054,0.737,2.035,1.274l4.533,2.525
	c0.611,0.36,1.066,0.692,1.366,0.978c0.527,0.453,0.65,1.131,0.65,1.847v0.772c0,0.786-0.172,1.498-0.65,2.027
	c-0.372,0.411-0.866,0.606-1.408,0.712c-0.05,0.028-0.119,0.044-0.173,0.044H7.027c-0.086,0-0.174-0.033-0.24-0.099
	c-0.062-0.058-0.091-0.151-0.091-0.246v-0.274v-1.403H3.31v4.944h5.004h2.937c1.797-0.024,3.03-0.451,3.823-1.288
	c0.794-0.823,1.212-2.125,1.231-4.014v-2.304c0-1.213-0.143-2.041-0.279-2.253c-0.174-0.34-0.417-0.614-0.778-0.901
	c-0.34-0.273-1.033-0.721-1.994-1.232L8.718,15c-0.611-0.382-1.072-0.668-1.418-0.962c-0.478-0.476-0.604-1.129-0.604-1.857v-0.708
	c-0.005-0.034-0.005-0.065-0.005-0.102c0-0.782,0.202-1.486,0.687-1.975c0.513-0.548,1.236-0.76,2.044-0.753h3.169
	c0.083,0,0.179,0.038,0.239,0.102c0.062,0.059,0.098,0.148,0.098,0.234v0.656v1.016h3.377V5.697h-4.996H8.319z"/>
<path fill="#FFFFFF" d="M69.712,7.005c-0.788,0.847-1.206,2.175-1.238,4.093v4.475v2.466v5.993c0.032,1.935,0.45,3.273,1.238,4.115
	c0.797,0.85,2.01,1.289,3.772,1.312h7.987V24.5h-3.375v1.692c0,0.095-0.024,0.188-0.1,0.247c-0.057,0.065-0.146,0.098-0.236,0.098
	h-0.295h-2.883c-0.795,0-1.528-0.22-2.03-0.756c-0.502-0.529-0.686-1.265-0.686-2.082v-5.66v-2.466v-4.11
	c0-0.812,0.184-1.549,0.674-2.057c0.502-0.558,1.233-0.763,2.042-0.763h3.16c0.084,0,0.176,0.028,0.245,0.101
	c0.061,0.071,0.093,0.149,0.093,0.235v1.672h3.391V5.697h-7.977C71.722,5.721,70.509,6.157,69.712,7.005"/>
<path fill="#FFFFFF" d="M89.619,8.848c0.06-0.062,0.142-0.097,0.24-0.097h7.768l1.553-3.053H86.179v23.761h12.998l-1.549-3.039
	h-7.769c-0.099,0-0.181-0.04-0.24-0.103c-0.07-0.065-0.1-0.143-0.1-0.232V19.89c0-0.093,0.034-0.181,0.1-0.241
	c0.06-0.067,0.142-0.099,0.24-0.099h6.13v-3.068h-6.13c-0.099,0-0.181-0.029-0.24-0.098c-0.07-0.059-0.1-0.153-0.1-0.237V9.082
	C89.52,8.998,89.554,8.912,89.619,8.848"/>
<path fill="#FFFFFF" d="M36.234,5.697l-4.942,23.762h3.563h0.007H36.6l1.543-3.039h-2.785c-0.106,0-0.202-0.04-0.262-0.123
	c-0.058-0.084-0.09-0.188-0.065-0.287l3.353-15.189c0.014-0.068,0.044-0.13,0.085-0.171c0.062-0.062,0.155-0.099,0.237-0.099
	c0.096,0,0.186,0.037,0.241,0.099c0.062,0.05,0.091,0.111,0.104,0.18l3.742,18.629h3.322L41.163,5.697H36.234z"/>
</svg>
