<?xml version="1.0" encoding="utf-8"?>
<!-- Generator: Adobe Illustrator 15.1.0, SVG Export Plug-In . SVG Version: 6.00 Build 0)  -->
<!DOCTYPE svg PUBLIC "-//W3C//DTD SVG 1.1//EN" "http://www.w3.org/Graphics/SVG/1.1/DTD/svg11.dtd">
<svg version="1.1" id="Layer_1" xmlns="http://www.w3.org/2000/svg" xmlns:xlink="http://www.w3.org/1999/xlink" x="0px" y="0px"
	 width="109.25px" height="45.25px" viewBox="0 0 109.25 45.25" enable-background="new 0 0 109.25 45.25" xml:space="preserve">
<path fill="#FFFFFF" d="M104.588,4.742c-0.723,1.697,0.682,4.385-1.344,4.913L40.354,9.444L33.68,9.582l-0.944,1.444l-7.871,29.862
	l-1.091,0.494l-10.623-0.186l-0.998-2.072C9.196,26.949,5.869,14.977,3.023,2.817c2.722-0.357,5.893-0.563,8.656,0.019
	c2.881,8.894,4.191,18.359,6.701,27.568l0.329,0.267l0.777-0.878L26.26,3.232l0.758-0.636l71.427,0.116
	C100.49,3.35,104.764,1.253,104.588,4.742"/>
<path fill="#FFFFFF" d="M104.686,16.212c0.178,1.999-1.725,3.831-3.111,4.998c-2.59-1.15-5.785-3.521-8.967-1.807
	c-0.996,0.747-1.695,2.087-0.969,3.192c4.406,3.296,12.271,1.5,13.93,8.187c0.818,2.878,0.162,6.559-2.117,8.598
	c-3.674,3.426-9,4.15-14.135,2.674c-2.254-1.005-4.771-1.682-6.723-3.485c0.75-2.047,2.068-3.797,3.486-5.324
	c2.863,0.709,5.359,3.031,8.896,2.617c1.17-0.02,2.641-0.828,3.219-2.078c0.416-4.982-5.945-3.058-8.873-4.476
	c-2.977-0.714-5.33-3.254-5.916-6.101c-0.576-2.978,0.248-5.833,2.521-7.747C91.25,11.819,99.623,12.394,104.686,16.212"/>
<path fill="#FFFFFF" d="M80.375,14.765c0.213,8.554,0.178,17.438-0.064,25.946c-2.758,0.71-5.861,0.095-8.781,0.09
	c-2.357-3.93-3.801-7.688-6.506-11.646c-0.342-0.146-0.496,0.31-0.736,0.4l-0.223,10.984c-1.842,1.008-4.443,0.093-6.578,0.497
	l-0.471-1.448c0.087-8.055-0.229-16.852,0.422-24.745c2.385-0.501,5.078-0.514,7.754-0.409l0.777,0.533l5.998,10.784l0.832-0.16
	c-0.205-3.179,0.484-7.203,0.311-10.734C75.172,13.978,78.176,14.459,80.375,14.765"/>
<path fill="#FFFFFF" d="M43.77,28.778c-0.182-2.121-1.055-4.17-1.944-6.007c-1.202,1.653-1.159,3.995-1.679,5.939
	C41.129,29.612,42.684,29.168,43.77,28.778 M50.13,21.243l4.81,19.468c-2.055,0.755-4.7,0.187-7.038,0.221
	c-1.154-1.615-0.428-4.709-3.085-5.05c-2.47,0.151-5.672-0.815-7.347,1.144l-1.152,3.988c-2.243,0.288-4.94,0.306-6.996-0.231
	c2.254-8.813,4.852-17.478,7.558-26.141c3.337-0.655,7.641-0.41,11.1-0.004L50.13,21.243z"/>
<path fill="#FFFFFF" d="M105.781,11.715c-0.053-0.024-0.129-0.037-0.23-0.037h-0.092v0.434h0.15
	c0.094,0.003,0.164-0.017,0.215-0.049c0.051-0.042,0.078-0.102,0.078-0.183C105.902,11.798,105.859,11.741,105.781,11.715
	 M105.076,12.898v-1.469c0.094-0.002,0.229,0,0.412,0c0.182,0.003,0.285,0,0.301,0c0.121,0.009,0.217,0.034,0.293,0.08
	c0.131,0.068,0.195,0.188,0.195,0.346c0,0.126-0.031,0.216-0.102,0.266c-0.068,0.056-0.15,0.09-0.252,0.097
	c0.094,0.02,0.16,0.052,0.209,0.088c0.086,0.074,0.137,0.186,0.135,0.335l0.002,0.128c-0.002,0.015,0.004,0.029-0.002,0.047
	c0,0.011,0.006,0.029,0.006,0.04l0.01,0.048l-0.365-0.007c-0.01-0.042-0.02-0.113-0.021-0.204c-0.002-0.085-0.012-0.143-0.027-0.178
	c-0.02-0.053-0.057-0.091-0.105-0.111c-0.033-0.009-0.076-0.019-0.139-0.022h-0.084l-0.082-0.002v0.519L105.076,12.898z
	 M104.891,11.399c-0.215,0.211-0.318,0.466-0.318,0.767c0,0.3,0.107,0.563,0.322,0.78c0.217,0.213,0.471,0.319,0.77,0.314
	c0.301,0.006,0.562-0.106,0.779-0.32c0.207-0.215,0.316-0.477,0.316-0.774c0-0.301-0.109-0.556-0.32-0.765
	c-0.221-0.224-0.475-0.334-0.775-0.334C105.365,11.067,105.105,11.177,104.891,11.399 M106.594,13.116
	c-0.26,0.248-0.568,0.377-0.93,0.374c-0.377-0.004-0.691-0.13-0.949-0.384c-0.25-0.256-0.375-0.575-0.381-0.946
	c0-0.387,0.141-0.71,0.418-0.965c0.26-0.245,0.562-0.362,0.914-0.366c0.363,0,0.684,0.13,0.936,0.388
	c0.262,0.266,0.391,0.576,0.391,0.943C106.994,12.538,106.863,12.86,106.594,13.116"/>
</svg>
