<?xml version="1.0" encoding="utf-8"?>
<!-- Generator: Adobe Illustrator 15.1.0, SVG Export Plug-In . SVG Version: 6.00 Build 0)  -->
<!DOCTYPE svg PUBLIC "-//W3C//DTD SVG 1.1//EN" "http://www.w3.org/Graphics/SVG/1.1/DTD/svg11.dtd">
<svg version="1.1" id="reddit" xmlns="http://www.w3.org/2000/svg" xmlns:xlink="http://www.w3.org/1999/xlink" x="0px" y="0px"
	 width="396px" height="337.75px" viewBox="0 119.563 396 337.75" enable-background="new 0 119.563 396 337.75"
	 xml:space="preserve">
<path fill="#F7F7F7" d="M101.001,312.564c0-13.326,10.799-24.125,24.125-24.125s24.125,10.799,24.125,24.125
	c0,13.322-10.8,24.123-24.125,24.123S101.001,325.889,101.001,312.564z M245.749,312.564c0-13.326,10.8-24.125,24.125-24.125
	c13.324,0,24.124,10.799,24.124,24.125c0,13.322-10.8,24.123-24.124,24.123C256.549,336.688,245.749,325.889,245.749,312.564z
	 M246.921,364.123c6.218-4.898,15.224-3.83,20.116,2.386c4.898,6.214,3.824,15.218-2.391,20.119
	c-17.299,13.628-43.66,22.438-67.149,22.438c-23.491,0-49.853-8.808-67.151-22.438c-6.216-4.901-7.283-13.905-2.387-20.119
	c4.899-6.216,13.903-7.284,20.119-2.386c9.958,7.845,29.673,16.292,49.422,16.292C217.25,380.415,236.964,371.968,246.921,364.123z
	 M390.496,264.314c0-26.65-21.598-48.25-48.246-48.25c-18.141,0-33.922,10.016-42.166,24.811
	c-24.802-13.568-55.018-22.332-87.932-24.352l28.793-64.658l55.105,15.908c4.954,14.076,18.366,24.167,34.133,24.167
	c19.982,0,36.188-16.2,36.188-36.188c0-19.989-16.199-36.189-36.188-36.189c-13.78,0-25.764,7.704-31.871,19.04l-61.41-17.724
	c-6.867-1.981-14.153,1.402-17.059,7.937l-39.116,87.837c-32.092,2.261-61.542,10.938-85.805,24.216
	c-8.239-14.794-24.033-24.804-42.171-24.804c-26.65,0-48.249,21.6-48.249,48.25c0,19.721,11.84,36.66,28.788,44.141
	c-3.041,9.054-4.663,18.508-4.663,28.233c0,66.619,75.603,120.623,168.872,120.623c93.266,0,168.872-54.004,168.872-120.623
	c0-9.727-1.62-19.176-4.664-28.229C378.662,300.979,390.496,284.035,390.496,264.314z M330.188,142.182
	c7.496,0,13.574,6.078,13.574,13.573c0,7.496-6.078,13.573-13.574,13.573c-7.493,0-13.571-6.077-13.571-13.573
	C316.615,148.26,322.689,142.182,330.188,142.182z M28.628,264.314c0-13.301,10.823-24.125,24.125-24.125
	c9.615,0,17.934,5.656,21.805,13.812c-12.608,9.56-23.057,20.592-30.785,32.7C34.905,283.128,28.628,274.445,28.628,264.314
	L28.628,264.314z M197.5,428.66c-77.442,0-140.222-41.18-140.222-91.973c0-50.793,62.78-91.974,140.222-91.974
	c77.441,0,140.221,41.176,140.221,91.974C337.721,387.484,274.941,428.66,197.5,428.66z M351.226,286.697
	c-7.728-12.103-18.178-23.131-30.782-32.699c3.877-8.156,12.189-13.813,21.808-13.813c13.299,0,24.122,10.825,24.122,24.125
	C366.372,274.44,360.094,283.125,351.226,286.697L351.226,286.697z"/>
</svg>
