<?xml version="1.0" encoding="utf-8"?>
<!-- Generator: Adobe Illustrator 15.1.0, SVG Export Plug-In . SVG Version: 6.00 Build 0)  -->
<!DOCTYPE svg PUBLIC "-//W3C//DTD SVG 1.1//EN" "http://www.w3.org/Graphics/SVG/1.1/DTD/svg11.dtd">
<svg version="1.1" xmlns="http://www.w3.org/2000/svg" xmlns:xlink="http://www.w3.org/1999/xlink" x="0px" y="0px"
	 width="242.988px" height="242.988px" viewBox="0 0 242.988 242.988" enable-background="new 0 0 242.988 242.988"
	 xml:space="preserve">
<g id="Layer_2">
</g>
<g id="Layer_1">
	<path fill="#010101" d="M121.494,0C54.395,0,0,54.395,0,121.494c0,67.099,54.395,121.494,121.494,121.494
		c67.1,0,121.494-54.396,121.494-121.494C242.988,54.395,188.593,0,121.494,0z M80.691,193.117l-7.282-4.91l-2.975,4.413l6.216,4.19
		l-1.397,2.071l-6.216-4.19l-3.061,4.54l7.281,4.909l-1.482,2.198l-9.544-6.434l10.399-15.422l9.543,6.435L80.691,193.117z
		 M82.865,55.06l-2.431,1.237l-8.44-16.574l2.291-1.167l13.272,8.08l0.043-0.021l-6.001-11.784l2.431-1.238l8.442,16.574
		l-2.303,1.173l-13.26-8.086l-0.044,0.023L82.865,55.06z M92.781,215.374l-2.024-0.638l-0.071-19.524l2.754,0.868l-0.363,14.74
		l0.047,0.015l8.166-12.281l2.754,0.868L92.781,215.374z M102.65,27.872l11.393-1.636l0.377,2.625l-8.693,1.249l0.756,5.268
		l7.421-1.066l0.355,2.473l-7.42,1.066l0.779,5.42l8.691-1.249l0.378,2.625l-11.392,1.637L102.65,27.872z M126.177,203.787
		l-8.779-0.147l-0.09,5.322l7.495,0.125l-0.042,2.497l-7.495-0.125l-0.092,5.474l8.78,0.148l-0.044,2.651l-11.508-0.192
		l0.312-18.599l11.508,0.193L126.177,203.787z M129.774,45.09l-3.036-0.5l6.988-8.506l-3.618-9.79l3.046,0.503l2.497,6.949
		l4.596-5.781l3.035,0.501l-6.725,8.084l4.05,10.328l-3.046-0.502l-2.761-7.473L129.774,45.09z M153.185,214.469l-11.569-10.362
		l-0.047,0.015l3.757,12.677l-2.614,0.775l-5.286-17.833l2.466-0.73l11.579,10.358l0.048-0.014l-3.758-12.677l2.615-0.776
		l5.286,17.834L153.185,214.469z M154.037,51.973l7.109-14.445l-4.431-2.181l1.103-2.243l11.312,5.567l-1.104,2.243l-4.433-2.182
		l-7.108,14.446L154.037,51.973z M174.543,204.109l-8.912-13.408l-4.112,2.733l-1.384-2.081l10.498-6.979l1.384,2.081l-4.114,2.735
		l8.913,13.409L174.543,204.109z"/>
</g>
</svg>
