<?xml version="1.0" encoding="utf-8"?>
<!-- Generator: Adobe Illustrator 15.1.0, SVG Export Plug-In . SVG Version: 6.00 Build 0)  -->
<!DOCTYPE svg PUBLIC "-//W3C//DTD SVG 1.1//EN" "http://www.w3.org/Graphics/SVG/1.1/DTD/svg11.dtd">
<svg version="1.1" id="Layer_1" xmlns="http://www.w3.org/2000/svg" xmlns:xlink="http://www.w3.org/1999/xlink" x="0px" y="0px"
	 width="242.988px" height="242.988px" viewBox="0 0 242.988 242.988" enable-background="new 0 0 242.988 242.988"
	 xml:space="preserve">
<g>
	<path fill="#010101" d="M242.988,121.494c0,67.099-54.395,121.494-121.494,121.494C54.395,242.988,0,188.593,0,121.494
		C0,54.395,54.395,0,121.494,0C188.593,0,242.988,54.395,242.988,121.494"/>
	<polygon fill="#FFFFFF" points="71.994,39.723 74.285,38.556 87.557,46.636 87.6,46.615 81.599,34.831 84.03,33.593 92.472,50.167 
		90.168,51.34 76.909,43.254 76.865,43.277 82.865,55.06 80.434,56.297 	"/>
	<polygon fill="#FFFFFF" points="102.65,27.872 114.043,26.236 114.42,28.861 105.727,30.11 106.483,35.378 113.904,34.312 
		114.259,36.785 106.839,37.851 107.618,43.271 116.309,42.022 116.687,44.647 105.295,46.284 	"/>
	<polygon fill="#FFFFFF" points="134.8,38.903 129.774,45.09 126.738,44.59 133.726,36.084 130.108,26.294 133.154,26.797 
		135.651,33.747 140.247,27.965 143.282,28.466 136.557,36.55 140.607,46.878 137.561,46.376 	"/>
	<polygon fill="#FFFFFF" points="161.146,37.528 156.715,35.347 157.818,33.104 169.13,38.671 168.026,40.915 163.593,38.732 
		156.485,53.178 154.037,51.973 	"/>
	<polygon fill="#FFFFFF" points="72.63,184.483 82.173,190.918 80.691,193.117 73.409,188.207 70.435,192.62 76.65,196.811 
		75.253,198.882 69.038,194.691 65.977,199.231 73.257,204.141 71.775,206.339 62.231,199.905 	"/>
	<polygon fill="#FFFFFF" points="90.686,195.212 93.439,196.08 93.077,210.82 93.124,210.835 101.29,198.554 104.043,199.422 
		92.781,215.374 90.756,214.736 	"/>
	<polygon fill="#FFFFFF" points="114.714,200.941 126.222,201.135 126.177,203.787 117.398,203.64 117.308,208.962 124.803,209.087 
		124.761,211.584 117.266,211.459 117.174,216.933 125.955,217.081 125.911,219.732 114.402,219.54 	"/>
	<polygon fill="#FFFFFF" points="137.425,199.74 139.891,199.01 151.47,209.368 151.518,209.354 147.76,196.678 150.375,195.901 
		155.662,213.735 153.185,214.469 141.616,204.106 141.569,204.121 145.326,216.798 142.711,217.573 	"/>
	<polygon fill="#FFFFFF" points="165.631,190.701 161.519,193.435 160.135,191.354 170.633,184.374 172.017,186.455 167.903,189.19 
		176.816,202.6 174.543,204.109 	"/>
</g>
</svg>
