<?xml version="1.0" encoding="utf-8"?>
<!-- Generator: Adobe Illustrator 15.1.0, SVG Export Plug-In . SVG Version: 6.00 Build 0)  -->
<!DOCTYPE svg PUBLIC "-//W3C//DTD SVG 1.1//EN" "http://www.w3.org/Graphics/SVG/1.1/DTD/svg11.dtd">
<svg version="1.1" id="Layer_1" xmlns="http://www.w3.org/2000/svg" xmlns:xlink="http://www.w3.org/1999/xlink" x="0px" y="0px"
	 width="202px" height="200.362px" viewBox="0 0 202 200.362" enable-background="new 0 0 202 200.362" xml:space="preserve">
<g>
	<defs>
		<rect id="SVGID_1_" x="-214" y="-218.008" width="640" height="640"/>
	</defs>
	<clipPath id="SVGID_2_">
		<use xlink:href="#SVGID_1_"  overflow="visible"/>
	</clipPath>
	<path clip-path="url(#SVGID_2_)" fill="#010101" d="M200.375,100.113c0,54.81-44.432,99.241-99.241,99.241
		c-54.81,0-99.241-44.432-99.241-99.241c0-54.809,44.431-99.241,99.241-99.241C155.943,0.873,200.375,45.304,200.375,100.113"/>
	<polygon clip-path="url(#SVGID_2_)" fill="#FFFFFF" points="25.348,81.331 26,79.334 38.339,76.358 38.352,76.32 28.086,72.961 
		28.78,70.845 43.22,75.568 42.562,77.575 30.228,80.541 30.216,80.58 40.48,83.938 39.788,86.055 	"/>
	<polygon clip-path="url(#SVGID_2_)" fill="#FFFFFF" points="36.256,56.799 41.905,49.284 43.637,50.586 39.327,56.32 
		42.802,58.933 46.481,54.038 48.112,55.264 44.433,60.159 48.007,62.845 52.318,57.113 54.05,58.414 48.401,65.929 	"/>
	<polygon clip-path="url(#SVGID_2_)" fill="#FFFFFF" points="61.221,44.648 61.879,51.126 59.833,52.586 58.974,43.636 
		51.236,40.057 53.289,38.59 58.741,41.173 58.068,35.179 60.114,33.719 60.881,42.274 69.179,45.915 67.126,47.38 	"/>
	<polygon clip-path="url(#SVGID_2_)" fill="#FFFFFF" points="75.674,28.664 71.854,29.956 71.199,28.022 80.953,24.723 
		81.608,26.656 77.785,27.951 81.999,40.409 79.889,41.122 	"/>
	<polygon clip-path="url(#SVGID_2_)" fill="#FFFFFF" points="110.729,22.71 119.979,24.393 119.591,26.524 112.533,25.242 
		111.757,29.52 117.78,30.613 117.415,32.622 111.392,31.526 110.592,35.926 117.648,37.209 117.261,39.341 108.012,37.66 	"/>
	<polygon clip-path="url(#SVGID_2_)" fill="#FFFFFF" points="132.362,28.53 134.447,29.632 131.986,41.423 132.022,41.442 
		140.391,32.775 142.476,33.877 131.078,45.037 129.547,44.229 	"/>
	<polygon clip-path="url(#SVGID_2_)" fill="#FFFFFF" points="153.658,42.438 160.238,49.152 158.69,50.667 153.671,45.544 
		150.565,48.588 154.851,52.96 153.394,54.39 149.107,50.017 145.913,53.146 150.934,58.27 149.387,59.787 142.807,53.071 	"/>
	<polygon clip-path="url(#SVGID_2_)" fill="#FFFFFF" points="168.851,61.243 169.761,63.136 162.916,73.823 162.935,73.861 
		172.668,69.179 173.634,71.185 159.942,77.773 159.027,75.871 165.875,65.191 165.857,65.155 156.125,69.838 155.159,67.83 	"/>
	<polygon clip-path="url(#SVGID_2_)" fill="#FFFFFF" points="176.194,89.167 175.682,85.167 177.707,84.909 179.016,95.122 
		176.991,95.38 176.478,91.377 163.433,93.049 163.15,90.84 	"/>
	<path clip-path="url(#SVGID_2_)" fill="#FFFFFF" d="M69.482,157.068l5.222,2.408c1.113,0.513,1.883,1.234,2.306,2.165
		c0.53,1.078,0.519,2.263-0.032,3.554c-0.887,1.862-2.336,2.74-4.344,2.633l0.271,7.55l-2.404-1.108l-0.047-7.172l-2.592-1.195
		l-2.718,5.896l-2.024-0.934L69.482,157.068z M68.716,164.049l3.07,1.416c0.765,0.338,1.441,0.373,2.024,0.105
		c0.564-0.239,0.984-0.66,1.261-1.261c0.32-0.727,0.337-1.352,0.051-1.875c-0.213-0.442-0.643-0.813-1.291-1.114l-3.18-1.465
		L68.716,164.049z"/>
	<path clip-path="url(#SVGID_2_)" fill="#FFFFFF" d="M86.66,175.368c1.029,1.142,2.344,1.826,3.945,2.054
		c1.899,0.226,2.953-0.346,3.164-1.714c0.163-1.121-0.38-1.882-1.631-2.28c-0.577-0.16-1.208-0.34-1.895-0.536
		c-1.226-0.382-2.116-0.987-2.67-1.819c-0.572-0.855-0.784-1.83-0.639-2.927c0.176-1.315,0.742-2.321,1.696-3.015
		c0.926-0.689,2.142-0.941,3.651-0.754c1.807,0.283,3.314,1.013,4.52,2.187l-1.481,1.711c-0.994-0.892-2.148-1.438-3.46-1.642
		c-0.68-0.091-1.271,0.009-1.772,0.3c-0.522,0.303-0.838,0.814-0.949,1.536c-0.058,0.435,0.053,0.849,0.333,1.244
		c0.28,0.402,0.771,0.72,1.473,0.954c0.39,0.122,0.927,0.274,1.609,0.456c1.342,0.376,2.286,1.018,2.829,1.925
		c0.54,0.894,0.738,1.873,0.595,2.942c-0.457,2.871-2.359,4.104-5.703,3.699c-2.16-0.288-3.924-1.221-5.295-2.799L86.66,175.368z"/>
	<polygon clip-path="url(#SVGID_2_)" fill="#FFFFFF" points="105.472,165.223 107.802,164.85 112.92,175.753 112.959,175.746 
		114.44,163.791 116.77,163.419 114.366,179.188 112.654,179.461 	"/>
	<path clip-path="url(#SVGID_2_)" fill="#FFFFFF" d="M125.112,160.688l4.807-2.316c0.521-0.252,1.049-0.444,1.582-0.579
		c0.549-0.103,1.171-0.07,1.864,0.097c0.565,0.105,1.116,0.38,1.649,0.823c0.539,0.42,0.989,1.004,1.351,1.754
		c0.488,1.015,0.588,2.104,0.298,3.271c-0.287,1.219-1.108,2.169-2.461,2.853l-3.06,1.475l2.576,5.342l-2.006,0.968L125.112,160.688
		z M130.203,166.113l2.979-1.436c0.741-0.373,1.188-0.883,1.34-1.529c0.141-0.626,0.076-1.215-0.189-1.768
		c-0.221-0.46-0.482-0.812-0.778-1.056c-0.288-0.209-0.608-0.33-0.96-0.361c-0.544-0.071-1.085,0.031-1.627,0.308l-2.905,1.4
		L130.203,166.113z"/>
</g>
</svg>
