<?xml version="1.0" encoding="utf-8"?>
<!-- Generator: Adobe Illustrator 15.1.0, SVG Export Plug-In . SVG Version: 6.00 Build 0)  -->
<!DOCTYPE svg PUBLIC "-//W3C//DTD SVG 1.1//EN" "http://www.w3.org/Graphics/SVG/1.1/DTD/svg11.dtd">
<svg version="1.1" id="Layer_1" xmlns="http://www.w3.org/2000/svg" xmlns:xlink="http://www.w3.org/1999/xlink" x="0px" y="0px"
	 width="242.988px" height="242.954px" viewBox="0 0 242.988 242.954" enable-background="new 0 0 242.988 242.954"
	 xml:space="preserve">
<g>
	<defs>
		<rect id="SVGID_1_" x="-173.64" y="-237.643" width="612" height="792"/>
	</defs>
	<clipPath id="SVGID_2_">
		<use xlink:href="#SVGID_1_"  overflow="visible"/>
	</clipPath>
	<path clip-path="url(#SVGID_2_)" fill="#010101" d="M242.988,121.478c0,67.099-54.395,121.494-121.494,121.494S0,188.577,0,121.478
		C0,54.379,54.395-0.016,121.494-0.016S242.988,54.379,242.988,121.478"/>
	<polygon clip-path="url(#SVGID_2_)" fill="#FFFFFF" points="33.349,78.075 34.41,76.211 47.37,75.746 47.391,75.71 37.797,70.255 
		38.923,68.276 52.417,75.95 51.352,77.824 38.396,78.278 38.376,78.315 47.97,83.77 46.845,85.75 	"/>
	<polygon clip-path="url(#SVGID_2_)" fill="#FFFFFF" points="48.282,56.044 54.999,49.177 56.581,50.725 51.457,55.965 
		54.633,59.071 59.007,54.597 60.498,56.055 56.123,60.528 59.39,63.724 64.515,58.483 66.097,60.031 59.382,66.899 	"/>
	<polygon clip-path="url(#SVGID_2_)" fill="#FFFFFF" points="74.644,46.574 74.892,53.223 72.711,54.578 72.418,45.395 
		64.763,41.24 66.952,39.88 72.342,42.87 72.048,36.712 74.228,35.357 74.452,44.131 82.676,48.386 80.487,49.747 	"/>
	<polygon clip-path="url(#SVGID_2_)" fill="#FFFFFF" points="89.474,30.99 85.582,32.344 84.896,30.375 94.832,26.914 
		95.519,28.884 91.624,30.241 96.045,42.931 93.894,43.68 	"/>
	<polygon clip-path="url(#SVGID_2_)" fill="#FFFFFF" points="123.976,23.309 133.557,23.992 133.4,26.2 126.088,25.678 
		125.772,30.11 132.014,30.555 131.866,32.634 125.625,32.19 125.299,36.748 132.61,37.269 132.453,39.477 122.871,38.793 	"/>
	<polygon clip-path="url(#SVGID_2_)" fill="#FFFFFF" points="145.885,26.281 148.178,27.023 147.78,39.324 147.82,39.337 
		154.714,29.138 157.007,29.881 147.503,43.122 145.818,42.576 	"/>
	<polygon clip-path="url(#SVGID_2_)" fill="#FFFFFF" points="169.258,35.702 177.43,40.75 176.268,42.633 170.032,38.781 
		167.698,42.561 173.02,45.848 171.924,47.623 166.602,44.335 164.2,48.223 170.437,52.075 169.274,53.959 161.1,48.911 	"/>
	<polygon clip-path="url(#SVGID_2_)" fill="#FFFFFF" points="188.589,49.682 190.068,51.237 186.76,63.777 186.789,63.806 
		194.789,56.203 196.357,57.853 185.104,68.549 183.619,66.986 186.933,54.453 186.905,54.424 178.905,62.027 177.337,60.376 	"/>
	<polygon clip-path="url(#SVGID_2_)" fill="#FFFFFF" points="204.699,73.562 202.694,69.96 204.517,68.947 209.635,78.14 
		207.812,79.155 205.806,75.55 194.064,82.086 192.958,80.098 	"/>
	<path clip-path="url(#SVGID_2_)" fill="#FFFFFF" d="M32.059,126.964l0.335,5.335l-3.152,0.198
		c-1.551,0.071-2.882-0.362-3.992-1.298c-1.104-0.943-1.717-2.178-1.842-3.706c-0.046-1.181,0.19-2.184,0.707-3.009
		c0.495-0.835,1.089-1.458,1.782-1.868c0.227-0.125,0.444-0.238,0.651-0.34c0.214-0.096,0.486-0.182,0.816-0.258
		c0.616-0.142,1.811-0.269,3.582-0.379c1.8-0.113,3.007-0.139,3.623-0.074c0.616,0.071,1.119,0.209,1.509,0.411
		c0.738,0.319,1.412,0.862,2.023,1.629c0.616,0.754,0.968,1.719,1.057,2.897c0.076,1.449-0.292,2.657-1.106,3.623
		c-0.821,0.969-1.872,1.611-3.153,1.935l-0.152-2.411c0.615-0.225,1.127-0.596,1.539-1.111c0.387-0.535,0.566-1.167,0.534-1.896
		c-0.048-0.534-0.187-0.989-0.417-1.36c-0.238-0.379-0.524-0.676-0.858-0.897c-0.352-0.275-0.794-0.443-1.326-0.506
		c-0.56-0.075-1.604-0.065-3.13,0.03c-1.527,0.096-2.556,0.216-3.089,0.361c-0.533,0.13-0.958,0.354-1.273,0.67
		c-0.304,0.261-0.543,0.593-0.718,0.997c-0.21,0.4-0.298,0.868-0.264,1.404c0.056,0.888,0.415,1.6,1.076,2.138
		c0.633,0.539,1.437,0.785,2.412,0.738l0.81-0.051l-0.193-3.062L32.059,126.964z"/>
	<polygon clip-path="url(#SVGID_2_)" fill="#FFFFFF" points="41.343,142.095 44.23,151.257 42.118,151.922 39.917,144.931 
		35.679,146.266 37.559,152.234 35.571,152.86 33.69,146.893 29.331,148.266 31.534,155.257 29.423,155.922 26.536,146.76 	"/>
	<polygon clip-path="url(#SVGID_2_)" fill="#FFFFFF" points="47.916,163.499 45.812,159.953 47.606,158.889 52.975,167.939 
		51.181,169.004 49.077,165.457 37.519,172.313 36.356,170.355 	"/>
	<path clip-path="url(#SVGID_2_)" fill="#FFFFFF" d="M62.817,190.444c1.085-1.444,1.852-2.382,2.302-2.808
		c0.456-0.424,0.887-0.718,1.295-0.884c0.72-0.352,1.569-0.511,2.548-0.475c0.971,0.022,1.934,0.383,2.888,1.082
		c0.948,0.729,1.57,1.56,1.867,2.493c0.295,0.922,0.367,1.776,0.217,2.559c-0.023,0.455-0.179,0.954-0.468,1.501
		c-0.296,0.541-0.984,1.533-2.067,2.975c-1.066,1.42-1.822,2.352-2.268,2.798c-0.452,0.442-0.893,0.737-1.322,0.884
		c-0.711,0.363-1.546,0.526-2.506,0.489c-0.979-0.025-1.955-0.384-2.928-1.079c-0.928-0.733-1.538-1.563-1.829-2.492
		c-0.315-0.92-0.403-1.775-0.263-2.567c0.052-0.254,0.107-0.493,0.164-0.716c0.066-0.226,0.177-0.488,0.333-0.788
		C61.073,192.853,61.751,191.863,62.817,190.444 M64.638,191.811c-0.918,1.223-1.496,2.084-1.732,2.582
		c-0.247,0.49-0.353,0.959-0.317,1.404c0,0.399,0.097,0.797,0.292,1.193c0.168,0.419,0.466,0.789,0.896,1.112
		c0.435,0.326,0.882,0.516,1.343,0.568c0.422,0.068,0.821,0.042,1.195-0.077c0.437-0.09,0.863-0.317,1.275-0.684
		c0.407-0.37,1.07-1.167,1.988-2.39c0.918-1.224,1.503-2.088,1.754-2.595c0.227-0.486,0.324-0.953,0.287-1.398
		c0.011-0.393-0.071-0.786-0.246-1.185c-0.196-0.405-0.507-0.776-0.933-1.114c-0.438-0.312-0.874-0.501-1.306-0.567
		c-0.442-0.064-0.856-0.041-1.241,0.069c-0.437,0.09-0.852,0.315-1.246,0.679C66.226,189.788,65.556,190.588,64.638,191.811"/>
	<polygon clip-path="url(#SVGID_2_)" fill="#FFFFFF" points="84.987,195.846 86.975,196.654 89.128,209.442 89.167,209.458 
		93.322,199.234 95.431,200.09 89.585,214.473 87.587,213.662 85.444,200.876 85.406,200.861 81.25,211.085 79.141,210.228 	"/>
	<polygon clip-path="url(#SVGID_2_)" fill="#FFFFFF" points="121.615,206.19 117.494,206.261 117.458,204.176 127.979,203.995 
		128.015,206.08 123.891,206.152 124.124,219.587 121.847,219.628 	"/>
	<polygon clip-path="url(#SVGID_2_)" fill="#FFFFFF" points="147.335,209.173 141.564,210.681 143.277,217.244 141.075,217.82 
		137.154,202.797 139.356,202.222 141.038,208.663 146.809,207.157 145.127,200.716 147.331,200.141 151.251,215.164 
		149.048,215.737 	"/>
	<polygon clip-path="url(#SVGID_2_)" fill="#FFFFFF" points="157.435,196.029 165.846,191.388 166.915,193.328 160.499,196.868 
		162.644,200.758 168.124,197.735 169.129,199.56 163.652,202.583 165.86,206.584 172.278,203.042 173.347,204.98 164.936,209.623 	
		"/>
	<polygon clip-path="url(#SVGID_2_)" fill="#FFFFFF" points="183.246,176.543 184.667,174.765 195.063,183.08 199.641,177.355 
		201.37,178.738 195.37,186.241 	"/>
	
		<rect x="200.7" y="155.146" transform="matrix(-0.4582 0.8888 -0.8888 -0.4582 439.1266 58.1625)" clip-path="url(#SVGID_2_)" fill="#FFFFFF" width="2.276" height="15.525"/>
	<path clip-path="url(#SVGID_2_)" fill="#FFFFFF" d="M211.167,151.344c1.303-0.877,2.185-2.11,2.646-3.696
		c0.5-1.889,0.074-3.039-1.279-3.447c-1.111-0.327-1.958,0.114-2.541,1.322c-0.246,0.559-0.518,1.172-0.815,1.84
		c-0.562,1.185-1.303,1.997-2.224,2.439c-0.947,0.456-1.965,0.53-3.053,0.225c-1.306-0.368-2.241-1.082-2.806-2.147
		c-0.565-1.037-0.645-2.305-0.238-3.803c0.546-1.787,1.5-3.207,2.861-4.258l1.518,1.744c-1.044,0.879-1.764,1.967-2.157,3.263
		c-0.19,0.675-0.174,1.289,0.049,1.835c0.229,0.574,0.702,0.967,1.417,1.181c0.432,0.122,0.866,0.069,1.307-0.156
		c0.447-0.225,0.838-0.676,1.177-1.354c0.18-0.377,0.41-0.898,0.693-1.562c0.572-1.303,1.357-2.164,2.354-2.585
		c0.98-0.417,2.001-0.478,3.062-0.18c2.839,0.875,3.812,2.977,2.923,6.302c-0.602,2.143-1.799,3.795-3.592,4.953L211.167,151.344z"
		/>
	<polygon clip-path="url(#SVGID_2_)" fill="#FFFFFF" points="206.068,126.451 205.895,130.569 203.811,130.48 204.252,119.968 
		206.337,120.056 206.164,124.176 219.59,124.742 219.495,127.015 	"/>
</g>
</svg>
