<?xml version="1.0" encoding="utf-8"?>
<!-- Generator: Adobe Illustrator 15.1.0, SVG Export Plug-In . SVG Version: 6.00 Build 0)  -->
<!DOCTYPE svg PUBLIC "-//W3C//DTD SVG 1.1//EN" "http://www.w3.org/Graphics/SVG/1.1/DTD/svg11.dtd">
<svg version="1.1" id="Layer_1" xmlns="http://www.w3.org/2000/svg" xmlns:xlink="http://www.w3.org/1999/xlink" x="0px" y="0px"
	 width="300px" height="300px" viewBox="0 0 300 300" enable-background="new 0 0 300 300" xml:space="preserve">
<polygon fill="#FFFFFF" points="149.741,5.818 158.755,47.58 174.883,8.018 176.508,50.71 199.262,14.55 193.448,56.875 
	222.135,25.216 209.061,65.889 242.809,39.692 222.869,77.477 260.654,57.538 234.457,91.286 275.131,78.211 243.471,106.898 
	285.797,101.085 249.637,123.838 292.329,125.463 252.768,141.591 294.528,150.605 252.768,159.618 292.329,175.746 
	249.637,177.371 285.797,200.125 243.471,194.312 275.131,222.998 234.457,209.924 260.654,243.672 222.869,223.732 
	242.809,261.518 209.061,235.32 222.135,275.994 193.448,244.334 199.262,286.66 176.508,250.5 174.883,293.191 158.755,253.631 
	149.741,295.393 140.728,253.631 124.6,293.191 122.975,250.5 100.222,286.66 106.034,244.334 77.348,275.994 90.423,235.32 
	56.674,261.518 76.613,223.732 38.828,243.672 65.025,209.924 24.353,222.998 56.012,194.312 13.687,200.125 49.847,177.371 
	7.154,175.746 46.716,159.618 4.955,150.605 46.716,141.591 7.154,125.463 49.847,123.838 13.687,101.085 56.012,106.898 
	24.353,78.211 65.025,91.286 38.828,57.538 76.613,77.477 56.674,39.692 90.423,65.889 77.348,25.216 106.035,56.875 100.222,14.55 
	122.975,50.71 124.6,8.018 140.728,47.58 "/>
</svg>
