<?xml version="1.0" encoding="utf-8"?>
<!-- Generator: Adobe Illustrator 15.1.0, SVG Export Plug-In . SVG Version: 6.00 Build 0)  -->
<!DOCTYPE svg PUBLIC "-//W3C//DTD SVG 1.1//EN" "http://www.w3.org/Graphics/SVG/1.1/DTD/svg11.dtd">
<svg version="1.1" id="Layer_1" xmlns="http://www.w3.org/2000/svg" xmlns:xlink="http://www.w3.org/1999/xlink" x="0px" y="0px"
	 width="181.04px" height="150.125px" viewBox="0 -1.491 181.04 150.125" enable-background="new 0 -1.491 181.04 150.125"
	 xml:space="preserve">
<path fill="none" stroke="#F6EB16" stroke-miterlimit="10" d="M176.972,66.367c-14.886-12.211-29.771-24.422-44.658-36.633
	c-9.092-7.458-18.185-14.917-27.276-22.375c-4.455-3.655-10.135-10.33-16.238-5.628C72.258,14.471,55.718,27.212,39.177,39.952
	c-9.104,7.013-18.209,14.026-27.314,21.039c-4.214,3.246-14.043,8.894-6.28,14.49c15.952,11.502,31.905,23.003,47.857,34.505
	c5.602,4.039,11.204,8.078,16.806,12.116c0.865,0.624,0.339,7.873,0.384,9.106c0.179,4.892,0.731,9.51,5.182,12.417
	c7.81,5.098,20.955,4.599,29.604,2.448c5.845-1.453,10.463-4.34,10.865-10.899c0.259-3.932-2.022-11.559,1.329-14.156
	c6.841-5.304,13.681-10.607,20.521-15.912c9.16-7.102,18.319-14.203,27.479-21.306C169.45,80.823,184.396,72.46,176.972,66.367
	C176.972,66.367,178.333,67.485,176.972,66.367z M93.01,6.317c1.122-0.883,4.697,3.054,5.404,3.633
	c2.948,2.418,1.699,11.894,1.926,15.588c0.426,6.932-0.238,15.103,1.957,21.738c2.135,6.449,7.174,10.044,7.58,17.277
	c-5.808-1.088-7.77-6.962-14.979-4.127c-2.762,1.086-4.709,4.225-7.838,4.225c-3.646,0-6.067-4.055-9.723-4.744
	c1.375-4.384,4.875-7.224,6.558-11.346c2.311-5.666,1.485-13.366,1.899-19.401c0.419-6.098,0.864-12.193,1.31-18.289
	C88.139,9.134,91.385,7.57,93.01,6.317C93.069,6.27,93.01,6.317,93.01,6.317z M9.488,70.649
	c23.676-18.236,47.352-36.472,71.027-54.708c-0.607,8.354-1.199,16.709-1.709,25.07c-0.48,7.871-7.011,12.798-8.298,20.726
	c-1.464,9.021-0.299,18.941-0.322,28.068c-0.02,8.229,0.031,16.455,0.104,24.684C50.022,99.875,29.755,85.262,9.488,70.649
	L9.488,70.649z M110.177,132.706c0.054,8.996-11.298,8.551-18.173,8.312c-4.295-0.149-9.069-0.147-12.803-2.585
	c-3.426-2.236-2.416-8.243-2.487-11.667c-0.419-20.189-0.706-40.518-0.353-60.751c2.484,0.564,4.199,3.157,6.592,4.098
	c3.68,1.446,7.892,0.754,11.003-1.61c3.124-2.372,5.604-3.706,9.039-0.85c1.428,1.188,2.915,2.214,4.726,2.738
	c3.715,1.074,2.482,2.508,2.513,6.302C110.379,95.355,110.085,114.247,110.177,132.706
	C110.181,133.359,110.167,130.74,110.177,132.706z M116.272,114.206c-0.073-17.089,0.784-34.284-0.274-51.349
	c-0.481-7.718-6.575-11.751-8.139-18.699c-1.979-8.801-1.349-18.988-1.867-27.993c22.146,18.167,44.291,36.333,66.437,54.499
	C153.71,85.179,134.991,99.693,116.272,114.206C116.244,107.622,116.272,114.206,116.272,114.206z"/>
</svg>
