<?xml version="1.0" encoding="utf-8"?>
<!-- Generator: Adobe Illustrator 15.1.0, SVG Export Plug-In . SVG Version: 6.00 Build 0)  -->
<!DOCTYPE svg PUBLIC "-//W3C//DTD SVG 1.1//EN" "http://www.w3.org/Graphics/SVG/1.1/DTD/svg11.dtd">
<svg version="1.1" id="Layer_1" xmlns="http://www.w3.org/2000/svg" xmlns:xlink="http://www.w3.org/1999/xlink" x="0px" y="0px"
	 width="189px" height="157.134px" viewBox="-3.96 0 189 157.134" enable-background="new -3.96 0 189 157.134"
	 xml:space="preserve">
<g>
	<path fill="none" stroke="#010101" stroke-width="4" stroke-miterlimit="10" d="M61.919,97.96c-0.625,0-1.257-0.188-1.804-0.581
		L27.832,74.23c-0.803-0.575-1.283-1.5-1.294-2.487c-0.01-0.988,0.451-1.923,1.242-2.515l40.05-29.984
		c1.371-1.026,3.314-0.747,4.341,0.625c1.026,1.37,0.747,3.314-0.624,4.341L34.886,71.656L63.73,92.338
		c1.392,0.998,1.711,2.936,0.713,4.327C63.837,97.509,62.885,97.96,61.919,97.96z"/>
</g>
<g>
	<path fill="none" stroke="#010101" stroke-width="4" stroke-miterlimit="10" d="M93.589,120.405c-0.48,0-0.966-0.111-1.41-0.339
		c-1.037-0.53-1.689-1.598-1.689-2.763V26.115c0-1.178,0.666-2.254,1.721-2.777c1.055-0.522,2.314-0.405,3.253,0.307l61.571,46.643
		c0.783,0.594,1.238,1.523,1.229,2.506c-0.012,0.983-0.486,1.903-1.283,2.479l-61.571,44.547
		C94.869,120.206,94.229,120.405,93.589,120.405z M96.69,32.354v78.879L149.95,72.7L96.69,32.354z"/>
</g>
<path fill="none" stroke="#F6EB16" stroke-width="4" stroke-miterlimit="10" d="M176.972,69.391L97.938,4.56
	c-1.207-0.99-2.787-1.536-4.447-1.536c-1.576,0-3.09,0.498-4.265,1.402L4.864,69.406c-1.428,1.1-2.231,2.694-2.205,4.375
	c0.026,1.681,0.88,3.249,2.341,4.304l65.394,47.148c0.071,3.996,0.177,8.006,0.358,11.992c0.19,4.187,1.893,7.356,5.059,9.424
	c3.896,2.543,8.155,3.107,11.02,3.312c2.284,0.163,4.982,0.329,7.68,0.329c5.147,0,9.374-0.598,13.303-1.881
	c1.988-0.65,8.043-2.628,8.42-9.44c0.015-0.258,0.031-0.516,0.047-0.771c0.052-0.802,0.104-1.631,0.101-2.5
	c-0.014-2.767-0.032-5.532-0.051-8.299c-0.005-0.778-0.011-1.57-0.015-2.354l60.537-46.938c1.393-1.08,2.203-2.657,2.228-4.328
	C179.101,72.108,178.333,70.508,176.972,69.391z M93.01,9.34c0.06-0.047,0.237-0.114,0.48-0.114c0.262,0,0.45,0.077,0.515,0.13
	l5.499,4.511c0.052,1.22,0.11,2.433,0.179,3.623c0.312,5.519,0.659,11.123,0.996,16.543c0.236,3.812,0.475,7.622,0.699,11.434
	c0.248,4.175,1.797,7.993,4.604,11.354c2.322,2.779,3.609,5.959,3.826,9.448c0.027,0.435,0.045,0.872,0.069,1.307
	c-1.157-0.217-1.881-0.807-2.918-1.668c-1.624-1.349-3.849-3.196-7.955-3.196s-6.33,1.849-7.954,3.196
	c-1.325,1.101-2.125,1.766-3.991,1.766c-1.866,0-2.666-0.665-3.99-1.766c-1.301-1.08-3.004-2.464-5.733-2.979
	c0.87-2.775,2.301-5.35,4.356-7.753c1.876-2.194,2.955-4.838,3.118-7.644c0.654-11.211,1.485-22.604,2.292-33.639L93.01,9.34z
	 M9.488,73.672l71.027-54.708c-0.677,9.316-1.348,18.811-1.896,28.204c-0.085,1.463-0.638,2.801-1.641,3.975
	c-4.69,5.484-6.929,11.638-6.844,18.81c0.091,7.616,0.071,15.373,0.052,22.875c-0.008,3.215-0.016,6.431-0.016,9.646v0.034
	c0.033,2.972,0.054,5.942,0.074,8.913c0.014,2.016,0.028,4.048,0.046,6.09L9.488,73.672z M110.177,135.73
	c0.004,0.653-0.041,1.343-0.088,2.071c-0.018,0.274-0.033,0.55-0.05,0.824c-0.075,1.358-0.449,2.678-4.153,3.889
	c-3.287,1.073-6.902,1.574-11.376,1.574c-2.503,0-5.064-0.157-7.239-0.312c-3.506-0.25-5.995-0.965-8.07-2.319
	c-1.499-0.979-2.151-2.285-2.253-4.512c-0.108-2.378-0.186-4.771-0.25-7.166l0.016,0.011l-0.103-7.722l-0.063-0.046
	c-0.048-3.573-0.078-7.136-0.101-10.643c-0.021-2.976-0.041-5.948-0.074-8.924c0-3.204,0.008-6.409,0.016-9.613
	c0.02-7.522,0.039-15.303-0.052-22.965c-0.003-0.285,0.019-0.558,0.024-0.838c1.062,0.241,1.757,0.818,2.744,1.637
	c1.624,1.351,3.848,3.197,7.954,3.197s6.331-1.848,7.954-3.196c1.325-1.102,2.125-1.766,3.991-1.766
	c1.867,0,2.666,0.664,3.991,1.766c1.51,1.255,3.561,2.921,7.139,3.15c0.186,6.865,0.102,13.773,0.018,20.514l-0.037,3.011
	c-0.096,8.214-0.068,16.52-0.021,24.67l-0.009,0.007c-0.002,2.371-0.005,5.279-0.005,7.852l0.062-0.048
	C110.153,131.797,110.167,133.764,110.177,135.73z M116.272,117.23c-0.028-6.584-0.033-13.23,0.043-19.806l0.037-3.005
	c0.117-9.338,0.238-18.993-0.354-28.537c-0.301-4.837-2.068-9.224-5.256-13.039c-1.965-2.353-3.003-4.887-3.174-7.745
	c-0.227-3.816-0.463-7.635-0.699-11.45c-0.295-4.742-0.598-9.622-0.877-14.458l66.436,54.499L116.272,117.23z"/>
</svg>
