<?xml version="1.0" encoding="utf-8"?>
<!-- Generator: Adobe Illustrator 15.1.0, SVG Export Plug-In . SVG Version: 6.00 Build 0)  -->
<!DOCTYPE svg PUBLIC "-//W3C//DTD SVG 1.1//EN" "http://www.w3.org/Graphics/SVG/1.1/DTD/svg11.dtd">
<svg version="1.1" id="Layer_1" xmlns="http://www.w3.org/2000/svg" xmlns:xlink="http://www.w3.org/1999/xlink" x="0px" y="0px"
	 width="202px" height="200.361px" viewBox="0 0 202 200.361" enable-background="new 0 0 202 200.361" xml:space="preserve">
<g>
	<path fill="#010101" d="M200.076,100.181c0,54.718-44.357,99.076-99.076,99.076c-54.718,0-99.076-44.358-99.076-99.076
		S46.283,1.105,101,1.105C155.719,1.105,200.076,45.463,200.076,100.181"/>
	<path fill="#FFFFFF" d="M50.457,50.408l3.672-3.714l2.194,2.17c1.06,1.085,1.61,2.337,1.649,3.754
		c0.031,1.419-0.471,2.669-1.503,3.754c-0.832,0.801-1.717,1.282-2.654,1.441c-0.932,0.184-1.773,0.155-2.521-0.084
		c-0.238-0.084-0.462-0.17-0.671-0.253c-0.209-0.094-0.449-0.236-0.719-0.428c-0.504-0.357-1.374-1.146-2.606-2.365
		c-1.252-1.238-2.055-2.103-2.409-2.594c-0.349-0.496-0.575-0.952-0.681-1.368c-0.249-0.746-0.291-1.59-0.127-2.535
		c0.147-0.938,0.623-1.823,1.425-2.654c1.006-0.999,2.126-1.514,3.36-1.55c1.239-0.03,2.393,0.316,3.461,1.042l-1.66,1.679
		c-0.564-0.303-1.168-0.436-1.809-0.4c-0.643,0.065-1.219,0.346-1.729,0.842c-0.359,0.382-0.6,0.78-0.723,1.189
		c-0.12,0.418-0.152,0.822-0.095,1.209c0.029,0.436,0.193,0.867,0.493,1.296c0.309,0.457,0.996,1.212,2.059,2.262
		c1.062,1.05,1.818,1.724,2.27,2.019c0.442,0.304,0.88,0.469,1.315,0.492c0.39,0.052,0.787,0.011,1.195-0.125
		c0.429-0.107,0.827-0.348,1.197-0.72c0.61-0.617,0.896-1.342,0.857-2.175c-0.018-0.812-0.361-1.559-1.029-2.238l-0.564-0.558
		l-2.107,2.131L50.457,50.408z"/>
	<polygon fill="#FFFFFF" points="61.603,32.975 69.952,28.688 70.94,30.612 64.57,33.883 66.552,37.743 71.99,34.95 72.921,36.763 
		67.484,39.555 69.524,43.527 75.894,40.256 76.882,42.179 68.533,46.468 	"/>
	<polygon fill="#FFFFFF" points="86.539,25.83 82.574,26.527 82.22,24.52 92.346,22.738 92.699,24.745 88.73,25.444 91.006,38.375 
		88.814,38.76 	"/>
	<path fill="#FFFFFF" d="M119.126,32.147c0.586-1.665,1.024-2.762,1.319-3.293c0.3-0.528,0.614-0.929,0.945-1.203
		c0.567-0.541,1.313-0.938,2.235-1.192c0.913-0.265,1.914-0.212,3.009,0.158c1.097,0.402,1.92,0.993,2.472,1.775
		c0.547,0.773,0.865,1.547,0.956,2.322c0.111,0.429,0.112,0.94,0.005,1.534c-0.117,0.593-0.467,1.72-1.052,3.38
		c-0.576,1.635-1.007,2.727-1.292,3.273c-0.29,0.545-0.614,0.949-0.972,1.213c-0.556,0.547-1.285,0.945-2.191,1.191
		c-0.919,0.265-1.934,0.216-3.045-0.146c-1.08-0.409-1.893-1.004-2.438-1.784c-0.563-0.764-0.896-1.536-0.999-2.315
		c-0.024-0.251-0.045-0.489-0.059-0.714c-0.005-0.23,0.022-0.507,0.08-0.833C118.207,34.905,118.55,33.782,119.126,32.147
		 M121.224,32.885c-0.497,1.41-0.781,2.381-0.855,2.916c-0.085,0.529-0.048,0.996,0.117,1.4c0.117,0.374,0.326,0.716,0.624,1.026
		c0.278,0.342,0.666,0.6,1.16,0.774c0.502,0.176,0.975,0.221,1.42,0.135c0.414-0.062,0.777-0.202,1.089-0.423
		c0.383-0.212,0.711-0.549,0.988-1.013c0.271-0.464,0.654-1.401,1.149-2.811c0.497-1.41,0.786-2.387,0.871-2.932
		c0.071-0.521,0.023-0.984-0.142-1.388c-0.105-0.37-0.299-0.713-0.578-1.032c-0.301-0.321-0.701-0.576-1.197-0.764
		c-0.5-0.161-0.961-0.209-1.383-0.145c-0.432,0.07-0.809,0.213-1.135,0.43c-0.383,0.211-0.703,0.544-0.963,0.999
		C122.107,30.532,121.72,31.476,121.224,32.885"/>
	<polygon fill="#FFFFFF" points="145.109,35.888 146.747,37.199 145.197,49.774 145.229,49.8 151.971,41.384 153.707,42.775 
		144.223,54.612 142.577,53.295 144.135,40.726 144.104,40.701 137.363,49.116 135.627,47.726 	"/>
	<polygon fill="#FFFFFF" points="46.884,139.572 44.456,136.359 46.083,135.13 52.28,143.331 50.654,144.561 48.226,141.346 
		37.749,149.262 36.407,147.487 	"/>
	<polygon fill="#FFFFFF" points="59.908,161.131 55.201,157.696 51.293,163.048 49.496,161.737 58.439,149.486 60.236,150.798 
		56.402,156.049 61.11,159.487 64.943,154.233 66.74,155.544 57.797,167.796 56,166.485 	"/>
	<polygon fill="#FFFFFF" points="75.882,160.196 84.767,163.224 84.069,165.27 77.29,162.96 75.889,167.069 81.676,169.041 
		81.018,170.97 75.232,168.997 73.792,173.224 80.571,175.533 79.874,177.581 70.989,174.552 	"/>
	<polygon fill="#FFFFFF" points="106.405,165.024 108.604,164.694 110.54,177.554 117.621,176.488 117.944,178.627 108.662,180.024 
			"/>
	
		<rect x="127.577" y="159.613" transform="matrix(-0.9234 0.3838 -0.3838 -0.9234 311.6896 272.2039)" fill="#FFFFFF" width="2.224" height="15.168"/>
	<path fill="#FFFFFF" d="M142.991,164.155c1.533,0.102,2.951-0.321,4.256-1.271c1.517-1.16,1.875-2.303,1.074-3.429
		c-0.663-0.917-1.581-1.083-2.755-0.499c-0.523,0.284-1.102,0.596-1.729,0.933c-1.145,0.578-2.203,0.765-3.179,0.554
		c-1.004-0.215-1.834-0.765-2.492-1.652c-0.79-1.064-1.083-2.178-0.883-3.338c0.184-1.139,0.88-2.164,2.091-3.079
		c1.493-1.054,3.078-1.58,4.759-1.577l0.129,2.256c-1.333,0.054-2.54,0.464-3.62,1.229c-0.551,0.409-0.902,0.891-1.062,1.447
		c-0.163,0.58-0.032,1.167,0.39,1.76c0.261,0.352,0.628,0.57,1.104,0.66c0.479,0.094,1.052-0.02,1.717-0.342
		c0.365-0.183,0.856-0.446,1.471-0.792c1.223-0.663,2.345-0.859,3.366-0.59c1.006,0.266,1.83,0.83,2.472,1.695
		c1.668,2.374,1.165,4.579-1.513,6.616c-1.747,1.294-3.659,1.854-5.738,1.677L142.991,164.155z"/>
	<polygon fill="#FFFFFF" points="153.469,141.8 151.026,145.001 149.405,143.766 155.64,135.592 157.26,136.826 154.816,140.031 
		165.258,147.992 163.909,149.761 	"/>
</g>
</svg>
