<?xml version="1.0" encoding="utf-8"?>
<!-- Generator: Adobe Illustrator 15.1.0, SVG Export Plug-In . SVG Version: 6.00 Build 0)  -->
<!DOCTYPE svg PUBLIC "-//W3C//DTD SVG 1.1//EN" "http://www.w3.org/Graphics/SVG/1.1/DTD/svg11.dtd">
<svg version="1.1" id="Layer_1" xmlns="http://www.w3.org/2000/svg" xmlns:xlink="http://www.w3.org/1999/xlink" x="0px" y="0px"
	 width="235.644px" height="353.465px" viewBox="0 0 235.644 353.465" enable-background="new 0 0 235.644 353.465"
	 xml:space="preserve">
<g>
	<path fill="#FFFFFF" d="M142.519,40.428V25.134h-4.043v-5.506h4.043v-4.703c0-3.696,2.389-7.089,7.893-7.089
		c2.228,0,3.877,0.213,3.877,0.213l-0.131,5.142c0,0-1.68-0.017-3.514-0.017c-1.985,0-2.303,0.915-2.303,2.433v4.021h5.975
		l-0.26,5.506h-5.715v15.293H142.519z"/>
</g>
<g>
	<path fill="#FFFFFF" d="M46.589,12.833c-1.446,0.641-3,1.074-4.629,1.27c1.664-0.998,2.942-2.578,3.544-4.46
		c-1.558,0.923-3.283,1.595-5.12,1.956c-1.47-1.567-3.565-2.545-5.884-2.545c-4.452,0-8.062,3.609-8.062,8.062
		c0,0.631,0.071,1.247,0.209,1.837c-6.7-0.336-12.641-3.546-16.617-8.424c-0.694,1.191-1.092,2.575-1.092,4.053
		c0,2.798,1.424,5.265,3.587,6.71c-1.322-0.042-2.565-0.404-3.652-1.008c-0.001,0.034-0.001,0.067-0.001,0.102
		c0,3.906,2.779,7.165,6.467,7.905c-0.676,0.184-1.389,0.283-2.125,0.283c-0.519,0-1.024-0.051-1.517-0.145
		c1.026,3.202,4.003,5.533,7.532,5.597c-2.76,2.163-6.235,3.452-10.013,3.452c-0.651,0-1.292-0.038-1.923-0.113
		c3.568,2.288,7.805,3.622,12.358,3.622c14.829,0,22.938-12.283,22.938-22.938c0-0.349-0.009-0.697-0.024-1.042
		C44.142,15.869,45.508,14.449,46.589,12.833"/>
</g>
<g>
	<path fill="#FFFFFF" d="M91.226,25.22c0-1.61-1.31-2.919-2.919-2.919s-2.919,1.31-2.919,2.919c0,1.609,1.31,2.918,2.919,2.918
		S91.226,26.83,91.226,25.22"/>
	<path fill="#FFFFFF" d="M88.307,18.187c1.515,0,2.92,0.484,4.069,1.304H97.9h5.066v-2.063c0-4.083-3.321-7.403-7.403-7.403H80.747
		c-4.083,0-7.403,3.321-7.403,7.403v2.063h10.894C85.387,18.671,86.791,18.187,88.307,18.187 M94.375,14.523
		c0-0.452,0.371-0.823,0.823-0.823h2.542c0.453,0,0.823,0.371,0.823,0.823v2.542c0,0.452-0.37,0.822-0.823,0.822h-2.542
		c-0.452,0-0.823-0.37-0.823-0.822V14.523z"/>
	<path fill="#FFFFFF" d="M95.339,25.22c0,3.878-3.155,7.032-7.032,7.032c-3.878,0-7.032-3.154-7.032-7.032
		c0-1.068,0.24-2.081,0.668-2.988h-8.6v10.134c0,4.082,3.322,7.403,7.404,7.403h14.817c4.083,0,7.403-3.321,7.403-7.403V22.232
		h-8.296C95.099,23.14,95.339,24.152,95.339,25.22"/>
</g>
<path fill="#FFFFFF" d="M213.311,9.866h-17.827c-3.605,0-6.528,2.903-6.528,6.485v17.711c0,3.582,2.923,6.485,6.528,6.485h17.827
	c3.605,0,6.527-2.903,6.527-6.485V16.352C219.838,12.77,216.916,9.866,213.311,9.866z M196.852,34.596v-18.88l17.054,9.488
	L196.852,34.596z"/>
<g>
	<path fill="#FFFFFF" d="M33.711,98.214c-0.936,0.414-1.94,0.694-2.994,0.821c1.076-0.646,1.902-1.667,2.291-2.884
		c-1.007,0.597-2.123,1.031-3.31,1.265c-0.951-1.013-2.306-1.646-3.805-1.646c-2.878,0-5.213,2.333-5.213,5.213
		c0,0.408,0.046,0.806,0.136,1.188c-4.333-0.217-8.174-2.293-10.745-5.447c-0.449,0.77-0.707,1.665-0.707,2.621
		c0,1.809,0.921,3.404,2.32,4.339c-0.854-0.027-1.658-0.262-2.361-0.652c0,0.022,0,0.044,0,0.066c0,2.525,1.797,4.632,4.182,5.112
		c-0.438,0.119-0.898,0.183-1.374,0.183c-0.335,0-0.662-0.033-0.98-0.094c0.663,2.071,2.588,3.578,4.87,3.62
		c-1.785,1.399-4.032,2.232-6.475,2.232c-0.421,0-0.836-0.025-1.244-0.073c2.307,1.479,5.047,2.342,7.991,2.342
		c9.588,0,14.833-7.943,14.833-14.832c0-0.226-0.006-0.451-0.016-0.674C32.128,100.177,33.012,99.259,33.711,98.214"/>
</g>
<g>
	<path fill="#FFFFFF" d="M99.626,105.881c0-1.229-1-2.229-2.229-2.229s-2.228,1-2.228,2.229c0,1.228,0.998,2.227,2.228,2.227
		S99.626,107.109,99.626,105.881"/>
	<path fill="#FFFFFF" d="M97.397,100.513c1.158,0,2.229,0.369,3.105,0.995h4.218h3.868v-1.575c0-3.117-2.536-5.651-5.651-5.651
		H91.625c-3.115,0-5.65,2.534-5.65,5.651v1.575h8.316C95.167,100.882,96.24,100.513,97.397,100.513 M102.029,97.716
		c0-0.346,0.282-0.628,0.628-0.628h1.94c0.346,0,0.628,0.283,0.628,0.628v1.941c0,0.345-0.282,0.627-0.628,0.627h-1.94
		c-0.346,0-0.628-0.282-0.628-0.627V97.716z"/>
	<path fill="#FFFFFF" d="M102.764,105.881c0,2.959-2.406,5.367-5.367,5.367s-5.367-2.408-5.367-5.367
		c0-0.816,0.182-1.589,0.509-2.282h-6.563v7.735c0,3.117,2.535,5.651,5.65,5.651h11.312c3.115,0,5.651-2.535,5.651-5.651V103.6
		h-6.333C102.582,104.292,102.764,105.065,102.764,105.881"/>
</g>
<g>
	<path fill="#FFFFFF" d="M18.027,296.919v-10.408h-2.752v-3.748h2.752v-3.2c0-2.516,1.626-4.824,5.371-4.824
		c1.517,0,2.639,0.145,2.639,0.145l-0.088,3.499c0,0-1.144-0.012-2.392-0.012c-1.352,0-1.568,0.623-1.568,1.656v2.736h4.066
		l-0.177,3.748h-3.89v10.408H18.027z"/>
</g>
<g>
	<path fill="#FFFFFF" d="M34.037,173.252c-0.984,0.437-2.042,0.731-3.151,0.865c1.133-0.68,2.002-1.755,2.412-3.036
		c-1.06,0.629-2.233,1.085-3.484,1.332c-0.999-1.066-2.426-1.732-4.004-1.732c-3.03,0-5.487,2.456-5.487,5.486
		c0,0.43,0.049,0.85,0.142,1.251c-4.56-0.229-8.602-2.415-11.308-5.733c-0.472,0.811-0.744,1.752-0.744,2.758
		c0,1.903,0.97,3.583,2.441,4.567c-0.898-0.029-1.745-0.275-2.484-0.687c-0.001,0.023-0.001,0.046-0.001,0.069
		c0,2.658,1.891,4.876,4.401,5.38c-0.46,0.125-0.944,0.193-1.446,0.193c-0.354,0-0.695-0.035-1.031-0.099
		c0.697,2.179,2.724,3.765,5.125,3.809c-1.878,1.472-4.243,2.349-6.814,2.349c-0.442,0-0.879-0.026-1.309-0.077
		c2.428,1.557,5.312,2.465,8.41,2.465c10.093,0,15.611-8.359,15.611-15.61c0-0.237-0.006-0.474-0.017-0.709
		C32.371,175.319,33.301,174.353,34.037,173.252"/>
</g>
<g>
	<path fill="#FFFFFF" d="M22.756,236.051c0-1.097-0.894-1.987-1.988-1.987s-1.987,0.891-1.987,1.987
		c0,1.095,0.893,1.986,1.987,1.986S22.756,237.146,22.756,236.051"/>
	<path fill="#FFFFFF" d="M20.768,231.265c1.032,0,1.988,0.329,2.771,0.887h3.759h3.449v-1.404c0-2.777-2.261-5.039-5.039-5.039
		H15.623c-2.778,0-5.038,2.262-5.038,5.039v1.404h7.414C18.78,231.594,19.737,231.265,20.768,231.265 M24.897,228.771
		c0-0.309,0.252-0.561,0.561-0.561h1.729c0.308,0,0.561,0.252,0.561,0.561v1.73c0,0.308-0.253,0.559-0.561,0.559h-1.729
		c-0.309,0-0.561-0.251-0.561-0.559V228.771z"/>
	<path fill="#FFFFFF" d="M25.554,236.051c0,2.639-2.147,4.786-4.786,4.786s-4.785-2.147-4.785-4.786
		c0-0.727,0.163-1.417,0.454-2.034h-5.852v6.896c0,2.779,2.26,5.039,5.038,5.039h10.084c2.778,0,5.039-2.26,5.039-5.039v-6.896H25.1
		C25.39,234.634,25.554,235.324,25.554,236.051"/>
</g>
<path fill="#FFFFFF" d="M26.283,327.358H14.556c-2.373,0-4.296,1.912-4.296,4.268v11.652c0,2.357,1.923,4.268,4.296,4.268h11.728
	c2.373,0,4.294-1.91,4.294-4.268v-11.652C30.577,329.27,28.656,327.358,26.283,327.358z M15.455,343.629v-12.422l11.22,6.242
	L15.455,343.629z"/>
</svg>
